<?xml version="1.0" encoding="UTF-8"?>
<svg id="Layer_2" data-name="Layer 2" xmlns="http://www.w3.org/2000/svg" viewBox="0 0 473.43 443.01">
  <defs>
    <style>
      .cls-1 {
        fill: #fff;
      }

      .cls-2 {
        fill: #c5c9c8;
      }

      .cls-3 {
        fill: #cfcfcf;
      }

      .cls-4 {
        fill: #e0c8cf;
      }

      .cls-5 {
        fill: #c7c6c5;
      }

      .cls-6 {
        fill: #ff4221;
      }

      .cls-7 {
        fill: #ff7961;
      }

      .cls-8 {
        fill: #c22d1f;
      }

      .cls-9 {
        fill: #ccc;
      }

      .cls-10 {
        fill: #ff9f21;
      }
    </style>
  </defs>
  <g id="Layer_2-2" data-name="Layer 2">
    <path class="cls-10" d="m450.72,234.96c.77,32.82,1.49,66.13-7.65,97.91-9.14,31.79-29.55,62.42-61.7,78.08-56.05,27.31-126.4,2.15-188.61,14.78-30.62,6.21-60.66,21.68-91.42,16.1-25.97-4.71-46.29-24.23-56.24-46.27-9.94-22.04-11.04-46.44-10.47-70.21.61-25.48,3.01-50.99,9.04-75.89,2.53-10.45,5.73-21.07,4.26-31.68-4.04-29.32-41.16-47.58-47.14-76.64-3.86-18.79,6.73-38.09,22.15-51.25,15.42-13.17,35.17-21.36,54.52-29.31,33.59-13.81,68.36-27.87,105.3-28.59,16.26-.32,32.73,1.97,48.7-.82,22.57-3.94,41.46-17.5,62.93-24.89,29.2-10.06,63.36-7.92,90.57,5.92,26.67,13.57,45.67,37.28,56.45,63.04,10.78,25.76,13.97,53.57,14.67,81.08.7,27.4-1,54.84-3.56,83.18-21.06-23.1-13.65-56.73-12.94-86.56.79-33.22-9.01-67.59-33.05-92.86-24.04-25.27-53.12-52.03-88.89-43.44-23.84,5.72-51.08,17.58-73.82,26.18-32.98,12.46-56.78,7.07-92.48,9.33-35.7,2.26-90.31,29.04-113.88,53.21-9.57,9.81-16.2,22.57-15.18,35.58,2.28,29.03,39.11,46.3,48.85,74.05,9.04,25.75-7.19,52.4-15.12,78.44-8.12,26.68-7.4,55.48,2.05,81.81,8.16,22.72,25.52,45.37,51.57,50.23,34.36,6.42,65.03-19.84,99.25-26.85,40.17-8.23,99.24,19.85,140.01,14.51,39.35-5.16,54.26-41.95,71.44-74.13,17.19-32.18,21.68-68.52,30.37-104.01Z"/>
    <path class="cls-6" d="m175.78,383.6c42.2,17.38,82.51,19.39,120.89,8.32,60.43-17.43,57.13-18.33,80.24-41.95,35.78-36.57,60.06-75.71,60.77-124.37.72-48.66-19.36-95.47-46.27-123.23-56.32-58.12-159.33-74.47-234.45-37.23-75.13,37.24-114.54,124.2-89.7,197.92,16.99,50.45,55.14,98.55,108.51,120.53Zm20.41-105.85c-7.96-5.46-14.71-12.35-19.5-20.17-17.68-28.85-9.17-68.63,24.25-84.89,19.21-9.35,43.63-9.57,63.17-1.26,6.12-.02,12.41.68,18.24,2.15,13.78,3.47,25.87,11.73,34.08,22.12,8.19,10.36,12.83,22.96,11.79,35.73,11.91,18.4,11.65,28.8-8.03,48.78-23.29,23.64-30.62,25.22-65.05,20.16-26.73-3.93-44.62-7.6-58.93-22.61Z"/>
    <path class="cls-8" d="m169.59,250.28c-14.79-21.12-10.84-50.88,6.91-70.3,17.75-19.42,47.2-28.47,74.63-25.62,27.43,2.85,52.58,16.63,70.77,35.41,11.5,11.88,20.6,26.03,24.06,41.59,3.46,15.56-3.41,24.9-13.66,36.12-1.46-29.16-8.48-50.93-31.47-71.12-22.99-20.19-58.61-29.4-88.64-18.84-30.03,10.56-50.41,42.81-42.59,72.76Z"/>
    <path class="cls-8" d="m63.2,238.15c27.49,60.72,92.95,106.31,138.84,118.86,42.16,11.53,71.51,26.73,126.58,8.37,48.96-16.32,75.99-54.01,102.06-94.13-12.53,39.57-27.52,88.46-67.96,110.07-38.21,20.43-37.85,29.06-122.56,27.4-37.96-.74-67.95-11.36-104.48-34.37-26.23-16.53-45.79-55.29-61.61-80.08-15.82-24.8-14.41-63.94-10.87-56.13Z"/>
    <polygon class="cls-1" points="247.52 295.57 247.97 339.39 241.78 370.88 221.28 407.36 255.47 410.23 275.72 374.5 285.43 332.64 278.19 302.69 247.52 295.57"/>
    <polygon class="cls-1" points="238.1 173.12 243.71 145 241.74 106.82 238.43 72.54 218.42 40.54 241.02 35.6 266.96 58.95 276 93.94 274.44 133.73 278.58 159.68 271.93 179.25 238.1 173.12"/>
    <polyline class="cls-1" points="60.92 249.04 84.18 223.03 123.98 212.07 150.2 222.48 165.16 239.52 168.07 217.65 153.3 197.43 126.89 190.2 91.69 190.29 54.88 218.91"/>
    <polyline class="cls-1" points="322.24 224.23 339.24 208.96 363.86 194.92 389.61 195.6 419.89 199.64 442.64 220.83 438.6 248.96 418.18 229.7 394.62 215.62 364.13 219.16 342.13 239.42 330.62 246.88"/>
    <path class="cls-2" d="m440.65,225.87c2.67-3.25,5.4-6.55,9-8.96,3.6-2.41,8.28-3.86,12.65-2.9,3.87.85,7.05,3.51,8.86,6.69,1.81,3.18,2.37,6.84,2.27,10.41-.32,11.39-7.54,22.43-18.46,28.23-3.34,1.77-7.28,3.11-11.05,2.29-3.91-.85-6.86-3.9-8.32-7.27-1.47-3.36-1.7-7.04-1.91-10.65,1.95,3.42,6.42,5.29,10.7,5.2,4.28-.09,8.33-1.86,11.72-4.2,3.81-2.64,7.16-6.61,6.52-10.88-.64-4.23-5.11-7.32-9.75-8.21-4.65-.89-9.47-.05-12.2.25Z"/>
    <path class="cls-9" d="m220.86,44.14c-3.69-1.27-7.43-2.56-10.66-4.61-3.22-2.05-5.93-4.99-6.71-8.47-1.18-5.3,2.5-10.78,7.67-13.55,5.17-2.76,11.49-3.23,17.49-2.77,5.53.43,11.11,1.64,15.7,4.43,4.59,2.79,8.07,7.35,8.28,12.32.2,4.97-3.42,10.12-8.81,11.3-1.51-3.31-3.57-6.49-6.55-8.86-2.98-2.37-6.99-3.85-10.95-3.44-3.96.41-7.71,2.96-8.63,6.43-.92,3.48,1.55,7.56,3.17,7.22Z"/>
    <path class="cls-5" d="m58.23,223.52c-2.51-4.75-5.46-9.9-10.88-11.92-6.24-2.32-13.74.65-17.77,5.52-4.03,4.87-5.23,11.15-5.6,17.2-.52,8.73.66,18,6.44,25.04,5.78,7.04,17.22,10.84,25.7,6.55,4.74-2.4,7.86-6.91,9.04-11.67,1.18-4.76.6-9.76-.76-14.49-1.12,3.93-2.29,7.95-4.85,11.3-2.56,3.34-6.85,5.93-11.35,5.57-5.97-.47-10.01-5.6-12.52-10.48-2.58-5.01-4.51-10.62-3.22-16.02,1.29-5.4,6.72-10.31,12.85-9.84,3.25.25,6.13,1.88,9.17,2.94,3.04,1.05,6.85,1.42,3.75.31Z"/>
    <path class="cls-3" d="m231.18,406.49c-8.34-2.81-18.44,2.46-21,10.12-2.57,7.66,1.71,16.38,9.06,20.89,7.35,4.52,17.11,5.15,25.65,2.89,9.42-2.5,18.15-9.17,19.44-17.91,1.29-8.74-7.64-18.27-17.26-16.47,5.78,6.57,5.43,17.14-1.48,22.76-6.91,5.62-19.56,4.35-24.15-2.93-4.59-7.28,1.78-18.22,9.74-19.35Z"/>
    <path class="cls-7" d="m199.81,74.16c-28.15,6.27-55.52,17.8-75.52,36.65-20,18.85-31.77,45.71-26.72,71.35,23.7-32.83,55.82-60.73,93.15-80.93,5.18-2.8,10.57-5.54,14.49-9.68,3.92-4.14,6.11-10.08,3.79-15.1-2.32-5.01-10.21-7.75-9.18-2.3Z"/>
    <line class="cls-7" x1="97.81" y1="176.17" x2="99.51" y2="176.75"/>
    <path class="cls-7" d="m307.88,86.64c25.37-2.12,51.6,6.72,69.15,23.31,17.54,16.58,26.02,40.55,22.35,63.18-17.31-1.65-28.76-16.6-36.63-30.54-7.86-13.94-16.03-29.64-32.14-35.57-7.07-2.61-15.23-3.07-21.42-7.1-6.19-4.03-8.25-12.68-1.31-13.26Z"/>
    <path class="cls-7" d="m110.95,262.29c16.25,39.1,56.89,69.18,102.76,76.05,1.46-5.47-2.04-11.19-6.91-14.72-4.87-3.53-10.94-5.39-16.74-7.51-31.95-11.67-59.19-33.43-75.81-60.56-3.35,3.32-4.67,8.19-3.3,6.74Z"/>
    <path class="cls-7" d="m318.61,339.27c42.17-18.12,72.64-56.56,77.87-98.26,15.69,17.54,13.61,44.14.5,63.31-13.11,19.17-35.11,32.06-57.73,41.76-3.87,1.66-7.91,3.28-12.2,3.4-4.29.12-8.92-1.6-10.76-5.08-1.84-3.48.44-8.5,2.31-5.13Z"/>
    <path class="cls-4" d="m150.9,115.68c-3.69,13.53-7.37,27.06-11.06,40.59-.35,1.28.65,2.46,1.92,2.52,8.35.38,16.7.76,25.05,1.14,2.58.12,2.59-3.88.02-4-8.35-.38-16.7-.76-25.05-1.14l1.92,2.52c3.69-13.53,7.37-27.06,11.06-40.59.68-2.49-3.19-3.52-3.86-1.04h0Z"/>
    <path class="cls-4" d="m184.2,103.92c-7.68,2.85-15.17,7.51-19.57,14.61-4.02,6.5-4.24,14.41.04,20.85,3.98,6,11.52,10.17,18.8,8.24,5.96-1.58,10.3-7.26,10.8-13.33.26-3.18-.83-6.53-3.24-8.7-.63-.57-1.35-1.08-2.1-1.49-1.36-.74-2.42-.33-3.83.06-2.93.8-5.86,1.6-8.79,2.4-2.49.68-1.48,4.55,1.01,3.87,3.55-.97,7.09-1.94,10.64-2.9l-1.49-.2c3.83,1.86,4.61,5.79,3.14,9.68s-5.16,6.98-9.46,7.04c-5.58.07-10.46-3.5-12.98-8.33-2.65-5.07-1.95-10.61,1.04-15.36,3.81-6.05,10.44-10.13,17.01-12.57,1.01-.38,1.72-1.32,1.43-2.44-.25-.96-1.42-1.81-2.44-1.43h0Z"/>
    <path class="cls-4" d="m122.5,109.29c-3.36,1.21-4.86,4.5-3.77,7.9s3.88,5.78,7.34,6.1c4.63.42,8.95-2.26,11.89-5.63s4.51-7.39,7.02-10.95c5.93-8.39,16.92-6.64,25.87-7.26,4.96-.34,10-1.33,13.95-4.55,3.15-2.57,5.43-6.61,4.64-10.77-1.41-7.39-14.48-9.74-16.92-1.89-.77,2.46,3.1,3.49,3.86,1.04.23-.75.77-1.22,1.54-1.52.9-.36,2.12-.44,3.18-.29,2.18.31,4.14,1.45,4.47,3.67.46,3.06-2,5.93-4.39,7.49-3.41,2.22-7.67,2.7-11.65,2.89-8.02.38-17.11-.52-23.87,4.71-3.02,2.33-4.99,5.61-6.84,8.88-1.74,3.08-3.54,6.26-6.52,8.32-2.51,1.74-6.36,3-8.72.41-.7-.77-1.16-1.86-1.23-2.78s.23-1.58,1.14-1.91c1.02-.36,1.72-1.33,1.43-2.44-.25-.97-1.42-1.8-2.44-1.43h0Z"/>
  </g>
</svg>