<?xml version="1.0" encoding="UTF-8"?>
<svg id="Layer_2" data-name="Layer 2" xmlns="http://www.w3.org/2000/svg" viewBox="0 0 377.73 377.01">
  <defs>
    <style>
      .cls-1 {
        fill: #e32d67;
      }

      .cls-2 {
        fill: #e32d82;
      }

      .cls-3 {
        fill: #eda6bb;
      }

      .cls-4 {
        fill: #ffb026;
      }

      .cls-5 {
        fill: #e66088;
      }

      .cls-6 {
        fill: #2c282e;
      }

      .cls-7 {
        fill: #ff7da4;
      }

      .cls-8 {
        fill: #ff9cb8;
      }
    </style>
  </defs>
  <g id="Layer_2-2" data-name="Layer 2">
    <path class="cls-3" d="m182.9,72.52c2.24,3.64-13.86-25.34-26.67-32.84-12.81-7.5-30.85-8.74-30.8-2.27,37.56,18.74,66.16,51.95,77,89.42,40.59-10.23,91.51-11.56,131.66,1.12-26.77-12.21-64.07-19.06-93.62-16.14"/>
    <path class="cls-8" d="m154.86,26.95c-11.36-5.18-13.72-9.45-26.78-10.04-12.47-.56-24.95-1.94-30.58,9.2-5.96,11.78,5.04,24.45,11.14,36.16,9.69,18.61,5.36,44.46-11.95,56.32-9.74,6.67-21.91,8.41-33.6,10.02s-23.87,3.42-33.54,10.18c-9.67,6.76-15.85,20.09-10.69,30.71,4.04,8.32,13.61,12.52,22.76,13.91,9.15,1.39,18.55.68,27.62,2.53,25.91,5.27,43.73,30.85,48.37,56.88,4.64,26.03-1.16,52.66-6.81,78.49-1.81,8.26-3.61,16.79-2.03,25.1s7.43,16.4,15.75,17.9c13.67,2.47,23.46-12.36,29.81-24.72,11.68-22.73,26.32-45.58,49.06-57.26,22.73-11.68,55.31-7.52,67.66,14.86,4.71,8.55,6.02,18.6,10.41,27.31s13.99,16.37,23.28,13.38c8.55-2.75,12.16-12.76,13.75-21.6,5.62-31.45.09-64.77-15.4-92.71-4.87-8.79-10.73-17.15-13.92-26.67-3.19-9.53-3.27-20.83,2.86-28.8,6.32-8.21,17.44-10.88,27.76-11.88s21.13-.99,30.31-5.8c9.18-4.81,15.8-16.61,10.83-25.7-3.14-5.74-9.7-8.57-15.86-10.76-26.19-9.32-53.85-14.51-81.64-15.31-21.85-.63-46.55.41-62.1-14.96-8.32-8.22-12.3-19.71-17.87-29.98s-18.09-21.99-28.57-26.77Z"/>
    <path class="cls-5" d="m117.63,37.32c8.93,18.05,12.35,28.44,14.86,51.57,1.12,10.36-.65,20.87-5.35,30.17-7.29,14.42-4.8,20.07-20.85,22.73-13.88,2.3-44.52,7.21-61.39,14.39-2.73,1.16-2.48,5.11.37,5.93,25.28,7.28,69.27,16.04,84.04,32.26,14.98,16.46,17.7,51.77,13.5,73.62-5.26,27.36-8.19,47.55-11.58,66.57-.29,1.6,1.89,2.36,2.66.93,10.27-19.14,24.45-43.41,38.27-57.1,15.9-15.75,38.24-26.63,60.37-23.35,29.18,4.33,49.31,31.7,56.62,60.83.4,1.59,2.61,1.68,3.19.15,21.82-57.46-11.33-108.11-42.91-151.37l80.32-33.28c3.11-1.29,3.32-5.6.37-7.21-30.37-16.57-63.9-9.34-103.49-7.23-7.58.4-19.57-17.88-25.45-22.67-7.86-6.41-14.77-19.11-19.48-28.09-10.51-20.02-37.25-33.3-58.52-36.49-4.25-.64-7.47,3.79-5.57,7.64Z"/>
    <path class="cls-7" d="m157.78,32.56c-3.36,5.08-6.71,10.16-10.07,15.25,1.33-3.57,2.65-7.13,10.07-15.25Z"/>
    <path class="cls-6" d="m169.74,69.13c3.04.2,4.89,3.33,6.21,6.08,3.42,7.13,6.92,14.82,5.69,22.63-2.82-1.36-4.69-4.16-5.91-7.05s-1.93-5.97-3.22-8.83c-.97-2.14-2.25-4.13-3.1-6.31s-1.25-4.68-.38-6.86c.68.1,1.35.2.72.33Z"/>
    <path class="cls-6" d="m151.12,70.26c2.01.43,3.62,1.99,4.6,3.79s1.43,3.84,1.86,5.84c1.27,5.88,2.55,11.77,3.82,17.65.32,1.47.64,3.01.26,4.46s-1.68,2.79-3.18,2.67c-1.91-.16-2.87-2.34-3.43-4.17-2.4-7.87-4.81-15.74-7.21-23.61-.53-1.73-1.05-3.66-.3-5.31s3.41-2.38,3.58-1.33Z"/>
    <path class="cls-6" d="m167.03,109.59c5.19,2.47,12.11.27,15.06-4.66l1.69-3.04c-6.91,3.31-14.43,5.33-22.06,5.94,2.2.62,4.36,1.3,5.31,1.76Z"/>
    <path class="cls-1" d="m105.77,50.41c-3.12-2.71-8.02-2.41-11.61-.36-3.59,2.05-6.13,5.49-8.46,8.91,4.41-6.08,12.66-9.1,20.07-8.55Z"/>
    <path class="cls-1" d="m112.84,60.76c-7.64-.14-15.08,5.12-17.48,12.38,2.85-6.81,11.62-10.43,18.44-7.6.46-1.37.04-2.99-.96-4.77Z"/>
    <path class="cls-1" d="m152.78,29.91c.17-7.33,6.19-14.09,13.45-15.11-6.37,3.57-11.22,9.75-13.16,16.79-.12-.96-.24-1.92-.29-1.68Z"/>
    <path class="cls-1" d="m106.82,23.73c-4.25-7.16-13.88-10.59-21.69-7.71,7.47-2.57,16.59,1.47,19.71,8.72.32-.02.64-.05,1.98-1.02Z"/>
    <path class="cls-1" d="m186.25,68.23c0-7.92,6.56-15.31,14.43-16.24-6.42,3.13-11.33,9.2-14.43,16.24Z"/>
    <path class="cls-1" d="m52.11,135.8c-4.83-4.96-11.21-8.38-18.02-9.66,3.5-1.81,7.92-1.7,11.32.29s5.66,5.79,6.7,9.36Z"/>
    <path class="cls-1" d="m63.66,131.51c-.49-7.16-6.63-13.52-13.77-14.25,3.72-.24,7.52,1.24,10.1,3.94s3.9,6.55,3.67,10.32Z"/>
    <path class="cls-1" d="m77.41,128.88c-2.5-7.34-8.78-13.27-16.25-15.35,4.26-.65,8.8.77,11.92,3.75s4.76,7.44,4.33,11.6Z"/>
    <path class="cls-1" d="m90.82,127.02c.88-7.44-4.31-15.13-11.54-17.09,3.95-.07,7.89,1.78,10.36,4.86s3.4,7.34,1.18,12.23Z"/>
    <path class="cls-1" d="m34.45,140.04c-5.35-1.05-10.69-2.1-16.04-3.15,5.24-3.23,12.91-1.54,16.04,3.15Z"/>
    <path class="cls-1" d="m25.55,147.16c-7.47-.84-15.03-.81-22.49.08,6.86-3.32,15.27-3.24,22.49-.08Z"/>
    <path class="cls-1" d="m22.33,155.26c-6.46,4.4-14.6,6.27-22.33,5.12,7.33-.84,14.56-2.51,22.33-5.12Z"/>
    <path class="cls-1" d="m22.34,167.96c-6.15,3.91-11.04,9.77-13.79,16.53,6.7-5.44,13.04-11.34,18.95-17.63-1.56-.79-3.09-.22-5.16,1.1Z"/>
    <path class="cls-1" d="m31.87,172.66c-4.98,4.49-7.51,11.54-6.54,18.17,2.45-5.85,4.9-11.7,6.54-18.17Z"/>
    <path class="cls-1" d="m42.06,178.3c-2.85,4.96-2.88,11.42-.07,16.4.08-5.11.16-10.22.07-16.4Z"/>
    <path class="cls-1" d="m55.48,181.28c-4.82,4.65-6.16,12.53-3.15,18.51,1.28-6.19,2.55-12.38,3.15-18.51Z"/>
    <path class="cls-1" d="m64.1,182.13c-4.19,4.96-5.06,12.48-2.11,18.27,1.39-5.43,2.11-11.04,2.11-18.27Z"/>
    <path class="cls-1" d="m76.16,182.88c-4.14,4.83-6.61,11.06-6.91,17.42,4.14-4.65,6.88-10.51,6.91-17.42Z"/>
    <path class="cls-1" d="m87.7,190.36c-6,2.11-9.9,8.98-8.64,15.21,1.74-5.68,5.06-10.87,8.64-15.21Z"/>
    <path class="cls-1" d="m103.24,200.1c-7.22.76-13.76,6.03-16.04,12.91,4.86-3.79,9.71-7.58,16.04-12.91Z"/>
    <path class="cls-1" d="m124.3,19.15c-2.88-7.04.74-16.06,7.69-19.15-3.63,5.71-6.07,12.18-7.69,19.15Z"/>
    <path class="cls-1" d="m197.02,80.04c3.34-5.41,6.16-11.14,8.43-17.08-.35,3.62-.71,7.29-2.06,10.67s-3.83,6.48-6.38,6.41Z"/>
    <path class="cls-1" d="m205.2,90.45c7.46-3.75,12.95-11.19,14.33-19.43-1.04,8.68-5.78,16.85-14.33,19.43Z"/>
    <path class="cls-1" d="m114.37,221.58c-6.12-2.77-14.17-.04-17.34,5.89,5.95-2,11.9-4.01,17.34-5.89Z"/>
    <path class="cls-1" d="m120.79,235.32c-8.71-.27-17.38,4.64-21.64,12.24,4.47-1.63,7.57-5.6,10.93-8.97s7.87-6.45,10.71-3.27Z"/>
    <path class="cls-1" d="m123.98,248.59c-4.92-1.29-10.37-.42-14.64,2.33-4.28,2.75-7.32,7.35-8.19,12.36,5.89-6.61,12.29-13.54,22.83-14.69Z"/>
    <path class="cls-1" d="m124.69,266.82c-6.02.19-11.92,2.82-16.08,7.18,4.45-3.47,10.58-4.67,16.08-7.18Z"/>
    <path class="cls-1" d="m121.92,287.1c-6.05-3.39-14.51-1.52-18.57,4.1,5.77-.95,11.65-1.25,18.57-4.1Z"/>
    <path class="cls-1" d="m120.07,307.08c-7.47-4.78-18.25-3.47-24.36,2.95,8.34-.61,16.68-1.23,24.36-2.95Z"/>
    <path class="cls-1" d="m239.5,102.94c1.25-6.58,3.98-12.88,7.92-18.3,1.42,6.53-.4,13.69-7.92,18.3Z"/>
    <path class="cls-1" d="m263.76,102.24c4.08-5.72,5.17-13.46,2.82-20.08,4.2,6.37,3.81,15.42-2.82,20.08Z"/>
    <path class="cls-1" d="m280.85,103.68c3.15-6.13,4.84-13,4.9-19.89,1.28,4.14,2.58,8.38,2.46,12.71s-1.89,8.87-7.36,7.17Z"/>
    <path class="cls-1" d="m301.25,106.19c4.98-5.16,7.54-12.56,6.81-19.7,1.62,6.34,1.24,13.18-1.06,19.3-.89,2.36-2.95,5.03-5.76.39Z"/>
    <path class="cls-1" d="m319.59,109.83c6.07-3.73,10.02-10.68,10.11-17.8.54,4.45.65,9.11-1.05,13.26s-5.57,7.67-9.07,4.54Z"/>
    <path class="cls-1" d="m338.65,114.57c7.03-2.57,11.63-10.54,10.34-17.91-.48,4.46-.97,8.99-2.71,13.13s-4.92,7.89-7.63,4.78Z"/>
    <path class="cls-1" d="m354.33,122.91c5.02-1.77,9.57-4.84,13.1-8.82.57.26.68,1.09.37,1.64s-.88.89-1.42,1.2c-4.59,2.62-9.19,5.24-12.05,5.98Z"/>
    <path class="cls-1" d="m357.02,129.56c6.58-2.89,14.55-2.38,20.71,1.33-7.52-.33-15.04-.66-20.71-1.33Z"/>
    <path class="cls-1" d="m355.59,139.29c5,2.58,8.81,7.35,10.22,12.79-3.86-4.39-8.47-8.12-10.22-12.79Z"/>
    <path class="cls-1" d="m339.98,147.45c4,4.96,6.19,11.36,6.06,17.74-1.82-6.14-5.17-11.81-6.06-17.74Z"/>
    <path class="cls-1" d="m327.62,150.25c3.88,7.38,7.25,16.02,4.39,23.85-1.65-8.86-4.15-17.56-4.39-23.85Z"/>
    <path class="cls-1" d="m312.8,154.3c2.79,3.14,4.48,7.24,4.7,11.44-1.05-5.41-4.82-10.21-4.7-11.44Z"/>
    <path class="cls-1" d="m298.96,158.01c5.2,2.55,9.02,7.72,9.93,13.44-2.94-6.22-9.37-10.65-9.93-13.44Z"/>
    <path class="cls-1" d="m273.52,291.86c-6.83,1.93-12.5,7.52-14.52,14.32,3.06-6.23,8.27-11.37,14.52-14.32Z"/>
    <path class="cls-1" d="m280.15,297.5c-4.42,1.78-6.97,6.32-9.09,10.58s-4.41,8.87-8.64,11.04c6.9-3.87,12.07-10.72,17.73-21.62Z"/>
    <path class="cls-1" d="m283.43,310.98c-2.84,9.52-7.6,18.46-13.91,26.13,6.08-5.52,10.42-12.93,13.91-26.13Z"/>
    <path class="cls-1" d="m289.66,326.47c-.55,6.93-2.01,13.78-4.33,20.33,4.72-5.62,6.62-13.49,4.33-20.33Z"/>
    <path class="cls-1" d="m299.28,330.81c1.85,7.4,2.56,15.08,2.08,22.68,1.65-8.02,3.21-16.77-2.08-22.68Z"/>
    <path class="cls-1" d="m311.8,322.8c4,4.27,8,8.53,12,12.8-2.37-5.76-7.26-10.42-12-12.8Z"/>
    <path class="cls-1" d="m313.61,311.85c5.05,2.8,10.52,4.83,16.17,6.03-5.48-2.47-10.97-4.93-16.17-6.03Z"/>
    <path class="cls-1" d="m315.74,297.92c4.29,3.73,10.19,5.52,15.83,4.8-5.86-.59-11.62-2.23-15.83-4.8Z"/>
    <path class="cls-1" d="m312.1,278.36c5.26,3.02,11.03,5.16,16.99,6.3-4.37-4.03-10.46-6.13-16.99-6.3Z"/>
    <path class="cls-1" d="m147.64,334.07c5.42,6.01,8.19,14.32,7.46,22.37,2.57-7.75.64-16.82-7.46-22.37Z"/>
    <path class="cls-1" d="m160.04,318.68c5.2,7.05,8.18,15.72,8.41,24.48,2.32-9.63-1.45-20.45-8.41-24.48Z"/>
    <path class="cls-1" d="m169.27,304.03c6.12,6.76,9.91,15.6,10.58,24.7-.6-4.69-1.22-9.44-2.92-13.85s-4.63-8.53-7.66-10.85Z"/>
    <path class="cls-1" d="m178.51,293.3c3.99,4.39,7.97,8.78,11.96,13.17-5.1-4.25-10.01-8.72-11.96-13.17Z"/>
    <path class="cls-1" d="m115,319.06c-7.58,2.02-14.33,6.98-18.52,13.6,4.45-5.94,11.49-9.86,18.52-13.6Z"/>
    <path class="cls-1" d="m113.64,338.35c-8.31,4.13-14.92,11.57-18.05,20.31,5.37-5.97,10.74-11.94,18.05-20.31Z"/>
    <path class="cls-1" d="m118.35,351.95c-4.5,5.91-6.64,13.57-5.83,20.96,2.16-7.52,4.32-15.03,5.83-20.96Z"/>
    <path class="cls-1" d="m128.24,355.25c.67,7.26,1.34,14.51,2.01,21.77.36-7.31-.04-14.66-2.01-21.77Z"/>
    <path class="cls-1" d="m139.1,351.65c4.48,5.22,7.22,11.89,7.72,18.75.16-3.65.31-7.39-.75-10.89s-3.57-6.78-6.97-7.86Z"/>
    <path class="cls-1" d="m262.64,283.12c-3.9,5.2-7.81,10.4-11.71,15.61,4.07-4.91,8.14-9.82,11.71-15.61Z"/>
    <path class="cls-1" d="m245.6,274.09c-4.46,5.62-6.42,13.15-5.26,20.23.19-7.44,2.59-14.81,5.26-20.23Z"/>
    <path class="cls-1" d="m226.52,271.03c-2.71,6.83-2.56,14.74.41,21.46-1.74-7.17-1.74-14.76-.41-21.46Z"/>
    <path class="cls-1" d="m193.46,278.17c4.83,6.68,7.41,14.96,7.24,23.2-.27-7.07-2.67-14.04-7.24-23.2Z"/>
    <path class="cls-1" d="m213.2,271.61c-1.34,7.9-2.59,16.45,1.11,23.56-2.99-7.32-3.61-15.59-1.11-23.56Z"/>
    <path class="cls-1" d="m312.63,254.12c8.79.42,17.04,6.57,19.96,14.88-4.62-6.18-11.89-10.31-19.96-14.88Z"/>
    <path class="cls-1" d="m301.02,227.6c7.24-3.78,17-1.83,22.24,4.43-7.42-3.03-15.7-3.91-22.24-4.43Z"/>
    <path class="cls-1" d="m288.42,204.72c3.85-.67,7.78-1.34,11.65-.8s7.75,2.5,9.63,5.92c-6.1-4.3-13.95-6.03-21.27-5.13Z"/>
    <path class="cls-1" d="m281.58,182.62c6.19,1.77,12.08,4.54,17.38,8.19-5.87-3.69-12.51-6.15-17.38-8.19Z"/>
    <path class="cls-1" d="m287.94,165.4c3.48,1.79,7.02,3.63,9.73,6.46s4.46,6.87,3.55,10.67c-3.97-6.74-9.78-12.4-13.28-17.13Z"/>
    <path class="cls-1" d="m139.05,24.03c.9-3.18,1.03-6.52,1.41-9.8s1.07-6.64,2.92-9.38,5.11-4.74,8.38-4.26c-6.09,5.89-10.25,13.75-12.72,23.44Z"/>
    <path class="cls-1" d="m115.16,20.69c.17-4.85-1.55-9.74-4.72-13.41s-7.76-6.08-12.58-6.61c7.33,4.42,13.12,11.34,17.31,20.02Z"/>
    <path class="cls-1" d="m102.45,33.86c-4.15-3.02-9.05-5.39-14.18-5.24s-10.4,3.38-11.65,8.36c8.33-2.51,17.1-3.55,25.84-3.13Z"/>
    <path class="cls-1" d="m171.47,37.59l-3.98,2.23c.52-7.11,7.67-13.03,14.75-12.21-5.28,4.16-9.72,9.39-10.77,9.98Z"/>
    <path class="cls-1" d="m117.44,80.91c-2.13,2.57-5.44,4.11-8.78,4.1s-6.64-1.57-8.75-4.15c4.54,4.21,11.36,5.8,17.53.05Z"/>
    <path class="cls-1" d="m179.28,53.96c4.9-3.15,8.81-7.8,11.08-13.16-.5,3.78-1.04,7.66-2.86,11.01s-5.27,6.1-8.22,2.15Z"/>
    <path class="cls-1" d="m115.65,95.33c-2.49,3.25-6.97,4.83-10.95,3.85s-7.22-4.44-7.94-8.47c3.84,6.7,12.48,10.22,18.88,4.61Z"/>
    <path class="cls-1" d="m218.38,96.56c4.72-2.27,7.88-7.43,7.77-12.66.99,6.53-3.06,13.48-7.77,12.66Z"/>
    <path class="cls-2" d="m305.05,242.81c6.89-3.53,16.45-1.12,20.25,5.63-6.69-4-14.01-6.95-20.25-5.63Z"/>
    <path class="cls-2" d="m71.47,157.82c-2.93.63-3.65,5.32-1.14,6.95s6.39-.63,6.41-3.62-3.53-5.31-5.27-3.33Z"/>
    <path class="cls-2" d="m91.42,150.56c-2.93.63-3.65,5.32-1.14,6.95s6.39-.63,6.41-3.62-3.53-5.31-5.27-3.33Z"/>
    <path class="cls-2" d="m105.79,165.84c-2.93.63-3.65,5.32-1.14,6.95s6.39-.63,6.41-3.62-3.53-5.31-5.27-3.33Z"/>
    <path class="cls-2" d="m145.16,287.32c-2.93.63-3.65,5.32-1.14,6.95,2.51,1.63,6.39-.63,6.41-3.62s-3.53-5.31-5.27-3.33Z"/>
    <path class="cls-2" d="m159.96,273.07c-2.93.63-3.65,5.32-1.14,6.95s6.39-.63,6.41-3.62-3.53-5.31-5.27-3.33Z"/>
    <path class="cls-2" d="m148.46,255.42c-2.93.63-3.65,5.32-1.14,6.95s6.39-.63,6.41-3.62-3.53-5.31-5.27-3.33Z"/>
    <path class="cls-2" d="m281.04,276.19c-2.93.63-3.65,5.32-1.14,6.95s6.39-.63,6.41-3.62-3.53-5.31-5.27-3.33Z"/>
    <path class="cls-2" d="m289.48,255.59c-2.93.63-3.65,5.32-1.14,6.95s6.39-.63,6.41-3.62-3.53-5.31-5.27-3.33Z"/>
    <path class="cls-2" d="m291.41,294.12c-2.93.63-3.65,5.32-1.14,6.95,2.51,1.63,6.39-.63,6.41-3.62s-3.53-5.31-5.27-3.33Z"/>
    <path class="cls-2" d="m266.88,256.6c-2.93.63-3.65,5.32-1.14,6.95s6.39-.63,6.41-3.62-3.53-5.31-5.27-3.33Z"/>
    <path class="cls-2" d="m315.24,121.6c-2.93.63-3.65,5.32-1.14,6.95s6.39-.63,6.41-3.62-3.53-5.31-5.27-3.33Z"/>
    <path class="cls-2" d="m299.31,134.02c-2.93.63-3.65,5.32-1.14,6.95,2.51,1.63,6.39-.63,6.41-3.62s-3.53-5.31-5.27-3.33Z"/>
    <path class="cls-2" d="m286.11,116.62c-2.93.63-3.65,5.32-1.14,6.95,2.51,1.63,6.39-.63,6.41-3.62s-3.53-5.31-5.27-3.33Z"/>
    <path class="cls-2" d="m124.88,37.61c-2.93.63-3.65,5.32-1.14,6.95s6.39-.63,6.41-3.62-3.53-5.31-5.27-3.33Z"/>
    <path class="cls-2" d="m143.5,41.6c-2.93.63-3.65,5.32-1.14,6.95s6.39-.63,6.41-3.62-3.53-5.31-5.27-3.33Z"/>
    <path class="cls-2" d="m132.59,53.78c-2.93.63-3.65,5.32-1.14,6.95s6.39-.63,6.41-3.62-3.53-5.31-5.27-3.33Z"/>
    <path class="cls-2" d="m280.19,141.01c-2.93.63-3.65,5.32-1.14,6.95s6.39-.63,6.41-3.62-3.53-5.31-5.27-3.33Z"/>
    <path class="cls-4" d="m197.99,196.54c-7.8,7.53-15.6,15.07-23.41,22.6-1.13-12.58.09-25.49,2.94-38.02-9.46-2.96-18.91-5.92-28.37-8.89,10.83-5.78,21.67-11.56,32.5-17.34-2.48-9.57-4.95-19.14-7.43-28.71,11.16,6.57,20.48,16.1,26.85,27.44,12.22-4.07,24.45-8.14,36.67-12.21-7.62,13.15-18.07,24.73-29.46,34.02,9.42,10.69,18.84,21.38,28.25,32.07-14.01-4.79-28.71-7.79-38.56-10.97Z"/>
  </g>
</svg>