<?xml version="1.0" encoding="UTF-8"?>
<svg xmlns="http://www.w3.org/2000/svg" xmlns:xlink="http://www.w3.org/1999/xlink" viewBox="0 0 1920 1080">
  <defs>
    <style>
      .cls-1 {
        fill: url(#linear-gradient);
      }

      .cls-2 {
        fill: blue;
      }

      .cls-3 {
        fill: #0009aa;
      }

      .cls-4 {
        fill: #ffefbf;
      }

      .cls-5 {
        fill: #fc5;
      }

      .cls-6 {
        fill: #ffc28a;
      }

      .cls-7 {
        fill: #ff0006;
      }

      .cls-8 {
        fill: #6ab9ff;
      }

      .cls-9 {
        fill: #356dff;
      }

      .cls-10 {
        opacity: .56;
      }

      .cls-11 {
        fill: #4ae3ff;
      }

      .cls-11, .cls-12 {
        opacity: .61;
      }

      .cls-12 {
        fill: #aadeff;
      }

      .cls-13 {
        fill: #fff;
        opacity: .65;
      }
    </style>
    <linearGradient id="linear-gradient" x1="1006.44" y1="281.45" x2="1004.97" y2="743.23" gradientUnits="userSpaceOnUse">
      <stop offset="0" stop-color="#fffdaa"/>
      <stop offset=".09" stop-color="#fff3ad"/>
      <stop offset=".23" stop-color="#ffdab7"/>
      <stop offset=".41" stop-color="#ffb0c7"/>
      <stop offset=".62" stop-color="#f7d"/>
      <stop offset=".67" stop-color="#ff6ae3"/>
    </linearGradient>
  </defs>
  <g id="Layer_1" data-name="Layer 1">
    <rect class="cls-1" x="-72" y="-78" width="2155" height="1307"/>
    <path class="cls-8" d="m1859.24,605.38H-129.79l69.07-87.38c59.55-75.32,159.26-79.07,222.71-8.37l37.11,41.35c33.18,36.98,83.99,40.15,120.26,7.53l80.24-72.18c62.32-56.04,149.83-49.36,205.59,15.69l50.21,58.6c26.94,31.42,69.02,35.29,99.71,9.15l113.55-96.7c62.1-52.9,147.23-45.24,201.92,18.16l37.13,43.04c37.97,44.03,99.19,41.66,134.66-5.21,31.21-41.24,74.18-62.04,117.22-62.04,40.46,0,80.99,18.38,111.89,55.39l16.74,20.05c34.21,40.98,89.18,43.95,126.38,6.83l54.17-54.07c63.91-63.77,158.62-57.3,215.94,14.76l83.53,105.02h-116.6l7.6-9.62Z"/>
    <circle class="cls-5" cx="1344" cy="132" r="132"/>
    <polygon class="cls-13" points="1955.6 152 1954 219.09 -35.03 219.09 -33.43 152 1955.6 152"/>
    <path class="cls-12" d="m-50.51,297.46l-83.53-88.46H1971.59l-76.67,81.7c-59.55,63.45-159.26,66.61-222.71,7.06l-37.11-34.84c-33.18-31.14-83.99-33.82-120.26-6.34l-80.24,60.8c-62.32,47.22-149.83,41.59-205.59-13.22l-50.21-49.35c-26.94-26.48-69.02-29.73-99.71-7.72l-113.55,81.47c-62.11,44.55-147.23,38.1-201.92-15.3l-37.13-36.27c-37.98-37.08-99.19-35.08-134.66,4.4-31.21,34.74-74.18,52.26-117.22,52.26-40.46,0-80.99-15.48-111.89-46.66l-16.74-16.9c-34.21-34.52-89.18-37.02-126.38-5.74l-54.17,45.54c-63.91,53.72-158.62,48.27-215.94-12.43Z"/>
    <rect class="cls-2" x="-102" y="589" width="2174" height="357"/>
    <path class="cls-9" d="m1988.6,697.99H-.43l69.07-73.61c59.55-63.45,159.26-66.61,222.71-7.05l37.11,34.83c33.18,31.15,83.99,33.82,120.26,6.34l80.24-60.8c62.32-47.21,149.83-41.58,205.59,13.22l50.21,49.36c26.94,26.47,69.02,29.73,99.71,7.71l113.55-81.46c62.1-44.56,147.23-38.11,201.92,15.3l37.13,36.26c37.97,37.09,99.19,35.09,134.66-4.39,31.21-34.74,74.18-52.26,117.22-52.26,40.46,0,80.99,15.48,111.89,46.66l16.74,16.89c34.21,34.52,89.18,37.02,126.38,5.75l54.17-45.55c63.91-53.72,158.62-48.27,215.94,12.43l83.53,88.47h-116.6l7.6-8.1Z"/>
    <path class="cls-3" d="m2003.64,855H-102l76.68-81.7c59.55-63.45,159.26-66.61,222.7-7.06l37.12,34.84c33.18,31.14,83.98,33.82,120.25,6.34l80.25-60.8c62.31-47.22,149.83-41.59,205.58,13.21l50.22,49.36c26.93,26.48,69.01,29.73,99.7,7.72l113.55-81.47c62.11-44.55,147.24-38.1,201.92,15.3l37.14,36.27c37.97,37.08,99.18,35.08,134.65-4.4,31.22-34.74,74.18-52.26,117.23-52.26,40.46,0,80.98,15.48,111.88,46.66l16.75,16.9c34.2,34.52,89.17,37.02,126.37,5.74l54.18-45.54c63.9-53.72,158.61-48.27,215.93,12.43l83.54,88.46Z"/>
    <path class="cls-11" d="m1935.24,158.74H-53.79L15.28,85.13c59.55-63.45,159.26-66.61,222.71-7.05l37.11,34.83c33.18,31.15,83.99,33.82,120.26,6.34l80.24-60.8c62.32-47.21,149.83-41.58,205.59,13.22l50.21,49.36c26.94,26.47,69.02,29.73,99.71,7.71l113.55-81.46c62.1-44.56,147.23-38.11,201.92,15.3l37.13,36.26c37.97,37.09,99.19,35.09,134.66-4.39,31.21-34.74,74.18-52.26,117.22-52.26,40.46,0,80.99,15.48,111.89,46.66l16.74,16.89c34.21,34.52,89.18,37.02,126.38,5.75l54.17-45.55c63.91-53.72,158.62-48.27,215.94,12.43l83.53,88.47h-116.6l7.6-8.1Z"/>
    <path class="cls-4" d="m2013.16,1079.29c-1.61-16.74-11.44-30.58-17.65-45.8-21.92-53.73,1.46-124.26-27.32-173.39-21.42-36.56-63.18-46.43-100.68-53.29-39.79-7.28-79.73-14.58-120-15.59-70.11-1.75-140.09,15.59-210.04,9.79-39.79-3.3-79.31-14.07-119.13-11.3-39.04,2.72-76.48,18.33-114.9,26.81-58.16,12.83-146.27,26.28-205.42,23.75-203.28-8.71-380-21-581.47-3.37-81.91,7.17-219.34-40.52-331.53-9.47-59,16.33-142.6-28.2-188.83,18.02l.35-4.12c-47.61,49.49-63.68,135.92-37.92,203.97,4.76,12.57,11.06,24.87,20.68,32.8,15.56,12.83,36.25,11.83,55.28,10.66,191.7-11.71,383.44,13.97,575.21,24.22,177.12,9.47,354.53,5.78,531.8,2.08,156.31-3.26,312.62-6.52,468.93-9.78,99.03-2.06,205.13-1.82,287.22,62.82,14.56,11.46,29.37,25.33,46.93,25.86,32.59.98,51.46-41.66,62.37-77.5,3.65-12.01,7.36-24.53,6.15-37.2Z"/>
    <g class="cls-10">
      <path class="cls-6" d="m2012.99,1180.68c-1.61-16.1-11.44-29.41-17.65-44.05-21.92-51.67,1.46-119.5-27.32-166.75-21.42-35.16-63.18-44.65-100.68-51.25-39.79-7-79.73-14.02-120-14.99-70.11-1.69-140.09,14.99-210.04,9.42-39.79-3.17-79.31-13.53-119.13-10.87-39.04,2.61-76.48,17.63-114.9,25.78-58.16,12.34-146.27,25.28-205.42,22.84-203.28-8.38-380-20.19-581.47-3.24-81.91,6.89-219.34-38.97-331.53-9.1-59,15.71-142.6-27.12-188.83,17.33l.35-3.96c-47.61,47.59-63.68,130.72-37.92,196.16,4.76,12.09,11.06,23.91,20.68,31.55,15.56,12.34,36.25,11.37,55.28,10.26,191.7-11.27,383.44,13.43,575.21,23.29,177.12,9.11,354.53,5.56,531.8,2,156.31-3.13,312.62-6.27,468.93-9.4,99.03-1.99,205.13-1.75,287.22,60.42,14.56,11.02,29.37,24.36,46.93,24.87,32.59.94,51.46-40.07,62.37-74.53,3.65-11.55,7.36-23.59,6.15-35.77Z"/>
    </g>
  </g>
  <g id="Layer_2" data-name="Layer 2">
    <g>
      <path class="cls-7" d="m505.86,271.12c3.67-6.2,11.02-15.26,19.92-23.47,12.7-11.71,23.99-17.11,36.33-18.27,9.9-1.24,20.03,1.15,29.4,7.53,11.46,7.87,15.65,19.36,11.37,30.19.12.08.25.15.37.23,11.27-5.4,30.37-6.76,47.76,5.51,10.16,7.06,15.18,14.55,17.35,21.58,2.5,9.46-1.76,18.49-12.86,29.17-6.06,5.85-11.38,10.12-15.05,12.71-44.86-21.72-89.72-43.45-134.58-65.17Zm66.79,16.34c3.29-3.21,6.61-6.37,9.96-9.49,11.61-10.77,10-22.23-1.81-29.85-14.34-9.19-28.86-5.49-41.39,6.06-5.66,5.24-8.27,8.66-9.62,10.84,14.29,7.48,28.57,14.96,42.86,22.43Zm63.8,33.39c2.37-1.45,5.18-3.9,8.46-7.01,9.44-8.98,12.54-20.51-5.1-32.08-16.55-10.85-33.6-6.88-45.36,4.13-2.95,2.76-5.87,5.55-8.77,8.39,16.92,8.86,33.84,17.71,50.76,26.57Z"/>
      <path class="cls-7" d="m598.28,190.83c36.26,29.45,72.52,58.91,108.79,88.36-3.24,2.3-6.46,4.65-9.65,7.04-37.61-28.56-75.23-57.11-112.84-85.67,4.53-3.31,9.1-6.56,13.7-9.73Z"/>
      <path class="cls-7" d="m622.67,174.78c4.71-2.94,9.44-5.82,14.21-8.63,15.66,15.29,31.31,30.59,46.97,45.88.14-.08.28-.17.42-.25-1.21-5.19-2.03-10.12-2.61-14.71-1.73-17.88-2.07-36.09-1-54.5,6.11-2.99,12.26-5.88,18.44-8.66-2.78,20.99-3.64,41.78-2.62,62.19,30.33,11.88,58.4,25.53,84.08,40.66-4.18,1.92-8.34,3.9-12.47,5.95-22.55-12.3-46.8-23.49-72.66-33.38.44,5.26,1.02,10.49,1.71,15.69,12.38,12.09,24.76,24.19,37.14,36.28-3.36,2.04-6.7,4.13-10.02,6.26-33.86-30.93-67.72-61.85-101.59-92.78Z"/>
      <path class="cls-7" d="m728.9,121.39c23.48,35.76,46.96,71.51,70.44,107.27-3.59,1.45-7.16,2.95-10.71,4.5-24.95-35.21-49.91-70.42-74.86-105.63,5.02-2.11,10.07-4.16,15.13-6.14Z"/>
      <path class="cls-7" d="m818.26,221.48c-20.88-36.62-41.77-73.24-62.65-109.85,5.6-1.91,11.22-3.73,16.87-5.48,22.57,14.79,43.34,30.52,62.28,47.01,13.14,11.47,23.21,22.32,31.75,33.17.07-.08.14-.15.22-.23-6.46-15.15-11.74-29.1-18.05-47.04-5.66-16.07-11.31-32.13-16.97-48.2,4.97-1.03,9.94-2.01,14.92-2.92,12.08,38.64,24.15,77.27,36.23,115.91-3.8.74-7.59,1.54-11.38,2.38-16.11-17.43-34.08-34.23-53.86-50.22-13.01-10.53-26.73-21.08-38.86-31.27-.14.11-.28.22-.42.33,8.26,13.73,15.57,26.99,25.28,45.45,8.32,15.82,16.64,31.65,24.96,47.47-3.45,1.13-6.89,2.3-10.32,3.51Z"/>
      <path class="cls-7" d="m890.39,81.44c7.86,39.14,15.73,78.27,23.59,117.41-3.79.48-7.58,1-11.36,1.57-9.4-38.99-18.8-77.98-28.2-116.97,5.32-.74,10.64-1.41,15.97-2.01Z"/>
      <path class="cls-7" d="m959.42,176.84c5.66,4.08,13.45,7.51,21.62,7.7,12.04.27,19.89-7.34,21.08-19.17,1.01-10.91-3.68-17.66-17.66-24.26-16.86-7.32-28.45-16.93-29.3-33.61-1.12-18.34,14.4-32.52,38.99-31.38,12.82.62,21.8,4.2,26.9,7.63-1.95,3.97-3.86,7.95-5.72,11.93-3.64-2.4-11.38-6.52-22.37-7.03-16.65-.71-22.85,9.03-22.73,17.03.07,11.06,7.09,16.39,21.79,23.3,18.04,8.55,25.54,19.11,23.21,36.17-2.67,18.03-14.87,32.37-35.32,31.94-8.48-.18-17.82-3.35-22.9-7.4.76-4.29,1.57-8.58,2.42-12.86Z"/>
      <path class="cls-7" d="m1064.25,85.26c-3.66,16.02-7.33,32.04-10.99,48.06,17.49,2.7,34.87,6.22,52.09,10.56,6.01-15.46,12.02-30.92,18.03-46.39,5.27,1.35,10.53,2.77,15.78,4.26-15.86,36.5-31.71,73.01-47.57,109.51-3.76-1.02-7.53-1.99-11.3-2.91,6.73-17.33,13.47-34.65,20.2-51.98-16.59-4.16-33.34-7.53-50.19-10.11-4.11,17.95-8.21,35.9-12.32,53.85-3.79-.55-7.58-1.06-11.38-1.52,7.24-38.55,14.48-77.11,21.73-115.66,5.31.71,10.62,1.48,15.92,2.32Z"/>
      <path class="cls-7" d="m1143.66,188.59c-9.65,9.81-18.95,19.8-27.89,29.95-3.79-1.26-7.6-2.46-11.42-3.62,27.25-33.01,58.27-64.35,92.9-93.63,6.1,2.38,12.16,4.86,18.2,7.44-9.83,39.36-23.53,77.45-40.98,113.9-3.75-1.85-7.51-3.65-11.3-5.39,5.01-11.62,9.65-23.39,13.91-35.3-11.01-4.85-22.16-9.3-33.41-13.35Zm38.13,2.16c3.7-10.98,7.08-22.07,10.14-33.27,2.07-7.62,4.41-14.35,6.59-20.96-.11-.05-.22-.09-.34-.14-5.62,5.4-11.42,10.92-17.43,16.38-9.75,8.57-19.2,17.3-28.34,26.2,9.89,3.63,19.68,7.55,29.38,11.78Z"/>
      <path class="cls-7" d="m1270.02,157.03c8.41,2.73,19.48,8.01,29.24,14.02,15.13,9.32,22.22,18.06,22.99,27.18.75,7.32-3.52,14.84-11.51,21.02-13.76,10.54-30.46,12.04-43.54,8.75-.15.13-.29.25-.44.38,4.48,6.93,1.37,15.65-7.27,25.47-11.52,13.24-19.75,22.22-22.21,26.41-3.37-2.4-6.76-4.75-10.17-7.05,1.58-3.17,8.5-11.43,18.41-23.46,11.11-13.2,11.3-20.91.92-27.9-3.73-2.26-7.49-4.48-11.26-6.64-12.83,13.07-25.65,26.14-38.48,39.21-3.43-1.94-6.87-3.83-10.34-5.67,27.89-30.57,55.77-61.13,83.66-91.7Zm-26.15,49.3c4.23,2.43,8.43,4.93,12.61,7.48,12.97,7.94,28.59,7.26,40.09-2.18,12.97-10.63,8.91-22.08-5.57-31.23-6.64-4.08-11.97-6.34-14.72-7.1-10.81,11.01-21.61,22.02-32.42,33.03Z"/>
      <path class="cls-7" d="m1357.04,212.29c4.43,3.46,8.82,6.98,13.18,10.57-18.07,11.72-36.13,23.45-54.2,35.17.13.11.26.21.39.32,6.68-.9,13.11-1.48,19.11-1.88,23.5-1.13,47.87-.97,73.02.61,5.12,4.95,10.17,10,15.16,15.15-29.26-3.39-57.53-4.8-84.68-4.43-11.23,23.08-24.8,44.76-40.56,64.74-3.44-3.5-6.92-6.93-10.44-10.29,12.7-17.37,23.8-35.92,33.2-55.46-6.93.28-13.78.68-20.55,1.19-14.29,9.27-28.57,18.54-42.86,27.81-3.15-2.53-6.33-5-9.53-7.44,36.25-25.36,72.5-50.71,108.75-76.07Z"/>
    </g>
  </g>
</svg>