<?xml version="1.0" encoding="UTF-8"?>
<svg id="Layer_1" data-name="Layer 1" xmlns="http://www.w3.org/2000/svg" viewBox="0 0 446.4 426.79">
  <defs>
    <style>
      .cls-1 {
        fill: #ffce42;
      }

      .cls-2 {
        fill: #e67b77;
      }

      .cls-3 {
        fill: #e24d4f;
      }

      .cls-3, .cls-4 {
        stroke: #231f20;
        stroke-miterlimit: 10;
      }

      .cls-4 {
        fill: #e44e4f;
      }
    </style>
  </defs>
  <path class="cls-2" d="m261.46,162.26c-17.27-21.08-50.05-19.89-65.79,2.36-.11.15-.22.31-.32.46-10.77,15.38-18.87,34.07-26.29,53.03-9.16,23.41-17.66,49.66-14.36,76.03,3.25,25.95,17.84,46.95,34.77,57.67,16.93,10.73,35.97,12.57,54.5,11.84,23.46-.92,49.7-8.09,62.88-35.7,7.54-15.8,9.38-36.15,7.06-54.95s-8.49-36.25-15.87-52.2c-10.25-22.17-23-41.98-36.57-58.54Z"/>
  <path class="cls-4" d="m148.8,331.92c-18.47-1.52-35.47-14.68-41.58-32.17-4-11.46-2.67-25.98,7.01-33.29,11.31-8.54,28.67-2.87,37.48,8.23,8.81,11.1,11.29,25.79,15.32,38.31,11.17,3.68,22.25,10.01,27.6,20.48s2.57,25.56-8.08,30.54c-9.37,4.37-21-.61-27.37-8.76-6.38-8.14-8.71-18.66-10.37-23.34Z"/>
  <path class="cls-3" d="m300.98,329.17c-1.21-12.68-2.41-25.56,0-38.06,2.42-12.5,8.99-24.8,20.03-31.15,11.04-6.35,26.82-5.03,34.66,5,6.85,8.76,6.14,21.62,1.25,31.61-4.89,9.99-13.23,17.78-21.31,25.41-8.08,7.63-16.29,15.63-20.76,25.81-2.4,5.46-3.64,11.39-6.25,16.76-2.6,5.37-7.05,10.37-12.94,11.37-7.55,1.29-15-4.94-16.78-12.39s1.13-15.4,5.87-21.41,11.16-10.44,16.21-12.95Z"/>
  <path class="cls-1" d="m145.35,318.23c-7.66.19-15.36-2.66-21.05-7.8-5.69-5.14-9.3-12.51-9.89-20.15-.36-4.66.44-9.54,3.06-13.41,2.62-3.87,7.27-6.52,11.91-5.98,5.67.66,9.82,5.56,12.91,10.36,5.97,9.27,10.32,19.58,12.81,30.32-2.97,2.19-5.94,4.37-9.76,6.66Z"/>
  <path class="cls-1" d="m163.09,336.33c.52,6.48,2.06,13.28,6.58,17.95,4.52,4.67,12.78,6.19,17.5,1.71,4.17-3.95,4-10.93,1.2-15.94-2.8-5.01-7.63-8.51-12.3-11.84-2.36,4.43-6.67,7.77-12.98,8.12Z"/>
  <path class="cls-1" d="m297.96,342.66c-4.42,2.92-9.01,6.04-11.49,10.72s-1.96,11.4,2.53,14.21c4.28,2.67,10.23.58,13.48-3.28s4.47-8.98,5.59-13.9c-4.54-2.59-9.08-5.18-10.11-7.74Z"/>
  <path class="cls-1" d="m308.41,318.51c-.84-10.38-1.51-21.14,2.05-30.93,3.56-9.79,12.48-18.41,22.9-18.25,4.21.06,8.57,1.71,11.09,5.08,3.92,5.25,2.34,12.75-.41,18.7-5.4,11.67-14.4,21.22-23.26,30.54-3.8-2.91-8.33-4.85-12.36-5.13Z"/>
</svg>