<?xml version="1.0" encoding="UTF-8"?>
<svg id="Layer_1" data-name="Layer 1" xmlns="http://www.w3.org/2000/svg" viewBox="0 0 595.28 841.89">
  <defs>
    <style>
      .cls-1 {
        fill: none;
      }

      .cls-1, .cls-2, .cls-3, .cls-4, .cls-5, .cls-6 {
        stroke: #231f20;
        stroke-miterlimit: 10;
      }

      .cls-1, .cls-5, .cls-6 {
        stroke-width: 3px;
      }

      .cls-7 {
        fill: #00aded;
      }

      .cls-8 {
        fill: #005dac;
      }

      .cls-9 {
        fill: #ef9050;
      }

      .cls-10 {
        fill: #ee78af;
      }

      .cls-11 {
        fill: #ffce42;
      }

      .cls-12 {
        fill: #e67b77;
      }

      .cls-13 {
        fill: #31b39f;
      }

      .cls-14 {
        fill: #8e4f9f;
      }

      .cls-15 {
        fill: #8cc759;
      }

      .cls-2 {
        fill: #ef8c45;
      }

      .cls-3 {
        fill: #e24d4f;
      }

      .cls-4 {
        fill: #e44e4f;
      }

      .cls-5 {
        fill: #231f20;
      }

      .cls-6 {
        fill: #fff;
      }
    </style>
  </defs>
  <path class="cls-12" d="m333.42,344.2c-17.27-21.08-50.05-19.89-65.79,2.36-.11.15-.22.31-.32.46-10.77,15.38-18.87,34.07-26.29,53.03-9.16,23.41-17.66,49.66-14.36,76.03,3.25,25.95,17.84,46.95,34.77,57.67,16.93,10.73,35.97,12.57,54.5,11.84,23.46-.92,49.7-8.09,62.88-35.7,7.54-15.8,9.38-36.15,7.06-54.95s-8.49-36.25-15.87-52.2c-10.25-22.17-23-41.98-36.57-58.54Z"/>
  <path class="cls-7" d="m281.8,332.61c-26.44,26.65-45.52,60.81-52.92,97.62-1.86,9.25-2.98,18.87-.93,28.09,2.05,9.21,7.75,18.02,16.4,21.8,9.68,4.23,21.37,1.39,29.83-4.94s14.16-15.65,18.75-25.16c9.16-19,14.64-39.75,16.08-60.79.83-12.15.22-24.76-4.92-35.8-5.15-11.04-15.62-20.21-22.28-20.81Z"/>
  <path class="cls-4" d="m213.93,511.8c-16.19-9.02-26.24-28.02-24.57-46.47,1.09-12.08,8.3-24.76,20.13-27.42,13.83-3.1,27.29,9.23,30.73,22.98s-.37,28.15-1.88,41.21c8.65,7.96,16.12,18.31,16.67,30.05s-8.22,24.34-19.97,24.47c-10.34.11-18.87-9.23-21.31-19.28s-.23-20.59.19-25.54Z"/>
  <path class="cls-8" d="m259.15,256.83c-25.51-22.86-55.35-40.87-87.47-52.77-8.58-3.18-17.51-5.95-26.66-5.8-9.15.15-18.64,3.64-24.12,10.97-6.31,8.44-6.1,20.46-1.81,30.09,4.29,9.62,12.06,17.24,20.18,23.96,23.7,19.61,52.25,33.69,82.6,38.72,9.77,1.62,20.03,2.27,29.39-.99,9.35-3.26,17.62-11.18,18.78-21.02s-7.29-19.95-10.88-23.16Z"/>
  <path class="cls-14" d="m279.25,272.3c-26.46-28.68-45.18-64.42-53.7-102.5-4.03-18.03-5.68-37.49,1.59-54.47,7.27-16.98,25.71-30.26,43.78-26.4,19.33,4.12,30.22,24.68,35.42,43.75,9.43,34.56,8.87,71.2,3.69,106.64-1.42,9.76-3.57,20.19-10.78,26.92s-21.11,6.8-20,6.06Z"/>
  <path class="cls-10" d="m324.85,280.79c-2.44-47.87,11.91-96.43,39.97-135.29,6.64-9.2,14.21-18.03,23.99-23.79,9.77-5.76,22.11-8.07,32.62-3.8,11.59,4.71,19.08,16.73,21.01,29.09,1.93,12.36-.96,25.01-5.28,36.75-18.52,50.38-65.41,89.23-112.31,97.04Z"/>
  <path class="cls-15" d="m261.01,323.22c-28.75-5.93-59.08-11.78-86.96-2.59-23.18,7.64-42.65,25.84-51.82,48.46-3.54,8.73-5.21,19.76,1.12,26.73,5.97,6.57,16.18,6.48,25.02,5.63,21.39-2.04,42.95-5.63,62.46-14.65s36.93-24.04,45.17-43.89c2.02-4.85,3.48-10.11,2.83-15.33s-3.79-10.36,2.18-4.37Z"/>
  <path class="cls-13" d="m337.11,327.67c.91,21.16,3.57,42.52,11.34,62.23s21.03,37.79,39.43,48.28c10.28,5.86,23.25,9.13,33.84,3.86,8.62-4.3,13.96-13.67,15.22-23.22s-1.08-19.26-4.65-28.21c-16.57-41.57-62.26-69.51-95.18-62.93Z"/>
  <path class="cls-9" d="m347.22,306.4c39.76,27.93,95,32.04,138.46,10.3,8.95-4.48,17.61-10.16,23.34-18.36,5.73-8.2,8.02-19.35,3.77-28.4-6.06-12.91-22.23-17.09-36.44-18.27-36.6-3.04-73.99,4.03-106.95,20.22-7.06,3.47-14.1,7.5-18.97,13.68s-8.98,16.79-3.21,20.84Z"/>
  <ellipse class="cls-11" cx="306.36" cy="308.51" rx="75.5" ry="74"/>
  <path class="cls-3" d="m375.6,509.42c-5.78-11.34-11.64-22.89-13.98-35.4s-.75-26.37,7.18-36.33c7.93-9.96,23.1-14.54,34.08-8.09,9.59,5.63,13.66,17.85,12.78,28.93-.87,11.08-5.77,21.39-10.48,31.47s-9.4,20.52-9.82,31.63c-.22,5.96.8,11.93.35,17.88-.45,5.95-2.75,12.24-7.85,15.33-6.55,3.97-15.77.92-20.16-5.35s-4.61-14.73-2.41-22.07,6.54-13.81,10.31-18Z"/>
  <path class="cls-6" d="m268.08,298.36c0-15.56,3.22-24.17,12.83-24.17s12.91,9.61,12.91,25.17-2.3,22-11.91,22-13.83-7.45-13.83-23Z"/>
  <path class="cls-6" d="m315.58,298.36c0-15.56,3.22-24.17,12.83-24.17s12.91,9.61,12.91,25.17-2.3,22-11.91,22-13.83-7.45-13.83-23Z"/>
  <path class="cls-5" d="m269.13,307.68c4.54-3.35,8.09-8.03,9.99-13.24l-5.7-6.64c3.03.23,6.06.47,9.09.7.82-2.08,1.65-4.23,1.62-6.47s-1.11-4.61-3.17-5.5c-1.52-.65-3.33-.38-4.77.43s-2.57,2.09-3.5,3.46c-2.63,3.87-3.86,8.56-4.24,13.22s.03,9.35.67,14.04Z"/>
  <path class="cls-5" d="m317.49,307.68c4.54-3.35,8.09-8.03,9.99-13.24l-5.7-6.64c3.03.23,6.06.47,9.09.7.82-2.08,1.65-4.23,1.62-6.47s-1.11-4.61-3.17-5.5c-1.52-.65-3.33-.38-4.77.43s-2.57,2.09-3.5,3.46c-2.63,3.87-3.86,8.56-4.24,13.22s.03,9.35.67,14.04Z"/>
  <path class="cls-1" d="m277.94,336.38c16.48,10.4,39.21,9.81,53.2-5.82,1.75,3.34,5.86,5.24,9.53,4.43"/>
  <path class="cls-1" d="m295.56,346.88c2.88,2.86,7,4.43,11.05,4.22s7.98-2.22,10.54-5.38"/>
  <path class="cls-1" d="m302.3,307.35c1.05,6.03-.1,12.42-3.18,17.71-1.35,2.31-3.05,5.29-1.38,7.38.95,1.19,2.73,1.47,4.19,1.03s2.67-1.46,3.77-2.52"/>
  <path class="cls-11" d="m216.44,497.9c-7.06-2.99-12.89-8.77-15.94-15.8-3.06-7.03-3.3-15.23-.68-22.44,1.6-4.39,4.34-8.5,8.33-10.94s9.32-2.93,13.32-.52c4.89,2.94,6.64,9.12,7.47,14.77,1.61,10.91,1.31,22.1-.86,32.91-3.61.76-7.22,1.53-11.64,2.03Z"/>
  <path class="cls-11" d="m225.12,521.72c-2.2,6.12-3.61,12.94-1.42,19.07,2.19,6.13,9.08,10.91,15.23,8.79,5.43-1.88,8.16-8.3,7.68-14.02-.48-5.72-3.43-10.9-6.31-15.86-3.98,3.06-9.29,4.32-15.17,2.04Z"/>
  <path class="cls-11" d="m377.75,523.08c-3.03,4.34-6.16,8.93-6.75,14.19s2.37,11.32,7.58,12.28c4.96.91,9.73-3.22,11.33-8.01,1.6-4.78.85-10,.09-14.99-5.17-.74-10.34-1.48-12.25-3.48Z"/>
  <path class="cls-11" d="m378.6,496.78c-4.6-9.35-9.18-19.11-9.47-29.52-.29-10.41,4.84-21.71,14.59-25.39,3.94-1.49,8.6-1.56,12.18.65,5.58,3.44,6.86,11,6.49,17.54-.73,12.84-5.6,25.03-10.4,36.95-4.6-1.31-9.53-1.44-13.39-.23Z"/>
  <path class="cls-5" d="m271.06,267.59l3.68,10.68"/>
  <path class="cls-5" d="m283.21,265.38v10.79"/>
  <path class="cls-5" d="m294.63,271.27l-4.79,6.26"/>
  <path class="cls-5" d="m317.1,269.8l4.05,10.68"/>
  <path class="cls-5" d="m329.62,267.22v11.05"/>
  <path class="cls-5" d="m340.67,271.27l-4.97,6.26"/>
  <path class="cls-5" d="m272.53,325.42l2.58-6.26"/>
  <path class="cls-5" d="m282.85,328.73l-.37-7"/>
  <path class="cls-5" d="m292.05,326.16l-4.42-7"/>
  <path class="cls-5" d="m319.31,325.05l2.21-7.37-2.21,7.37Z"/>
  <path class="cls-5" d="m328.74,326.71l-.6-5.02"/>
  <path class="cls-5" d="m336.83,324.1l-2.26-3.63"/>
  <circle class="cls-2" cx="254.92" cy="325.15" r="7.46"/>
  <circle class="cls-2" cx="353.99" cy="318.42" r="6.64"/>
</svg>