<?xml version="1.0" encoding="UTF-8"?>
<svg id="Layer_1" data-name="Layer 1" xmlns="http://www.w3.org/2000/svg" viewBox="0 0 446.4 426.79">
  <defs>
    <style>
      .cls-1 {
        fill: none;
      }

      .cls-1, .cls-2, .cls-3, .cls-4 {
        stroke: #231f20;
        stroke-miterlimit: 10;
      }

      .cls-1, .cls-3, .cls-4 {
        stroke-width: 3px;
      }

      .cls-5 {
        fill: #ffce42;
      }

      .cls-2 {
        fill: #ef8c45;
      }

      .cls-3 {
        fill: #231f20;
      }

      .cls-4 {
        fill: #fff;
      }
    </style>
  </defs>
  <ellipse class="cls-5" cx="230.07" cy="240.7" rx="75.5" ry="74"/>
  <path class="cls-4" d="m191.79,230.55c0-15.56,3.22-24.17,12.83-24.17s12.91,9.61,12.91,25.17-2.3,22-11.91,22-13.83-7.45-13.83-23Z"/>
  <path class="cls-4" d="m239.29,230.55c0-15.56,3.22-24.17,12.83-24.17s12.91,9.61,12.91,25.17-2.3,22-11.91,22-13.83-7.45-13.83-23Z"/>
  <path class="cls-3" d="m192.84,239.88c4.54-3.35,8.09-8.03,9.99-13.24l-5.7-6.64c3.03.23,6.06.47,9.09.7.82-2.08,1.65-4.23,1.62-6.47s-1.11-4.61-3.17-5.5c-1.52-.65-3.33-.38-4.77.43s-2.57,2.09-3.5,3.46c-2.63,3.87-3.86,8.56-4.24,13.22s.03,9.35.67,14.04Z"/>
  <path class="cls-3" d="m241.2,239.88c4.54-3.35,8.09-8.03,9.99-13.24l-5.7-6.64c3.03.23,6.06.47,9.09.7.82-2.08,1.65-4.23,1.62-6.47s-1.11-4.61-3.17-5.5c-1.52-.65-3.33-.38-4.77.43s-2.57,2.09-3.5,3.46c-2.63,3.87-3.86,8.56-4.24,13.22s.03,9.35.67,14.04Z"/>
  <path class="cls-1" d="m201.65,268.58c16.48,10.4,39.21,9.81,53.2-5.82,1.75,3.34,5.86,5.24,9.53,4.43"/>
  <path class="cls-1" d="m219.27,279.08c2.88,2.86,7,4.43,11.05,4.22s7.98-2.22,10.54-5.38"/>
  <path class="cls-1" d="m226.01,239.55c1.05,6.03-.1,12.42-3.18,17.71-1.35,2.31-3.05,5.29-1.38,7.38.95,1.19,2.73,1.47,4.19,1.03s2.67-1.46,3.77-2.52"/>
  <path class="cls-3" d="m194.77,199.78l3.68,10.68"/>
  <path class="cls-3" d="m206.92,197.57v10.79"/>
  <path class="cls-3" d="m218.34,203.47l-4.79,6.26"/>
  <path class="cls-3" d="m240.81,201.99l4.05,10.68"/>
  <path class="cls-3" d="m253.33,199.41v11.05"/>
  <path class="cls-3" d="m264.38,203.47l-4.97,6.26"/>
  <path class="cls-3" d="m196.24,257.61l2.58-6.26"/>
  <path class="cls-3" d="m206.56,260.93l-.37-7"/>
  <path class="cls-3" d="m215.76,258.35l-4.42-7"/>
  <path class="cls-3" d="m243.02,257.24l2.21-7.37-2.21,7.37Z"/>
  <path class="cls-3" d="m252.45,258.9l-.6-5.02"/>
  <path class="cls-3" d="m260.54,256.29l-2.26-3.63"/>
  <circle class="cls-2" cx="178.63" cy="257.34" r="7.46"/>
  <circle class="cls-2" cx="277.7" cy="250.61" r="6.64"/>
</svg>