<?xml version="1.0" encoding="UTF-8"?>
<svg id="Layer_1" data-name="Layer 1" xmlns="http://www.w3.org/2000/svg" viewBox="0 0 360 366.75">
  <defs>
    <style>
      .cls-1 {
        fill: #e8bc58;
      }

      .cls-2 {
        fill: #e4cf92;
      }

      .cls-3 {
        fill: #e3cf93;
      }

      .cls-4 {
        fill: #8fa072;
      }

      .cls-5 {
        fill: #c6d796;
      }

      .cls-6 {
        fill: #df955d;
      }

      .cls-7 {
        fill: #d390b1;
      }

      .cls-8 {
        fill: #e1e8ca;
      }

      .cls-9 {
        fill: #e0e5c8;
      }

      .cls-10 {
        fill: #6cc1e7;
      }

      .cls-11 {
        fill: #95a677;
      }

      .cls-12 {
        fill: #6bc0e5;
      }

      .cls-13 {
        fill: #596847;
      }

      .cls-14 {
        fill: #75855f;
      }

      .cls-15 {
        fill: #fff;
      }

      .cls-15, .cls-16, .cls-17, .cls-18 {
        stroke: #231f20;
        stroke-miterlimit: 10;
      }

      .cls-16 {
        fill: #0e69b4;
      }

      .cls-17 {
        fill: #1c6aaf;
      }

      .cls-18 {
        fill: none;
        stroke-width: 2px;
      }
    </style>
  </defs>
  <path class="cls-11" d="m237.37,293.93c-22.22,12.43-46.95,19.88-72.05,21.69-7.94.57-16.03.58-23.71-1.63-7.68-2.21-14.96-6.85-19.21-13.94-7.3-12.18-4.18-27.96-5.98-42.23-2.17-17.21-11.58-32.3-17.71-48.41-6.13-16.12-8.41-36.21,2.27-49.44,5.81-7.2,14.63-11.11,23.5-12.53,8.87-1.42,17.91-.61,26.85.21,39.96,3.67,79.93,7.34,119.89,11.01,6.38.59,13.33,1.44,17.87,6.2,4.89,5.13,5.42,13.52,3.23,20.41-2.19,6.89-6.61,12.7-10.76,18.51-19.66,27.52-34.88,58.55-44.18,90.15Z"/>
  <path class="cls-4" d="m197.12,119.04c-22.91-2.57-46.56,1.84-67.01,12.5-10.24,5.34-20.67,14-20.76,25.54-.05,6.53,3.39,12.7,8,17.32,4.61,4.62,10.35,7.94,16.01,11.2,15.6,8.98,31.89,18.18,49.85,19.5,13.35.98,26.58-2.49,39.51-5.94,16.75-4.46,34.06-9.2,47.51-20.14,7.77-6.32,14.31-15.88,12.51-25.74-1.29-7.04-6.67-12.78-12.93-16.25s-13.36-5.02-20.35-6.53c-18.13-3.91-35.95-9.64-52.34-11.48Z"/>
  <g>
    <g>
      <path class="cls-7" d="m160.54,119.27c12.37-28.73,24.75-57.47,37.12-86.2,7.3,30.51,14.6,61.01,21.91,91.52-20.1-4.63-40.88-6.32-59.03-5.32Z"/>
      <path class="cls-2" d="m174.47,119.02c9.38-14.71,21.43-26.64,35.23-35.65,0,0-1.36-7.06-1.6-6.7-4.28,2.6-5.65,3.91-9.61,7.42-3.22,2.86-7,6.08-10.75,9.75-5.12,5.02-6.62,7.37-12.13,13.76-2.56,2.96-5.89,7.51-7.02,11.4l5.89.02Z"/>
      <path class="cls-3" d="m194.72,120.41c4.5-8.49,10.49-15.81,18.54-22.17,0,0-.94-5.36-1.38-5.75-10.07,7.96-17.6,16.59-22.82,27.35l5.66.57Z"/>
    </g>
    <path class="cls-2" d="m164.47,110.5c12.87-19.69,12.21-16.94,19.37-24.81,4.03-4.43,6.67-6.35,10.15-9.81s7.51-6.46,12.12-7.95c-.63-2.57-1.22-4.72-1.92-7.6-10.48,6.95-23.08,20.64-23.08,20.64,0,0-5.2,5.62-9.32,11.93-.95,3.21-8.26,17.07-7.32,17.59Z"/>
    <path class="cls-2" d="m182.44,68.83c4.79-7.4,11.63-13.46,19.56-17.32-.41-1.81-.82-3.62-1.23-5.43-9.12,4.11-15.19,11.94-18.33,22.75Z"/>
    <path class="cls-3" d="m205.4,121.82c3.07-4.2,6.59-8.01,10.88-10.96.3,1.66.81,3.2,1.29,5.39-3.25,1.52-8.18,6.26-8.18,6.26,0,0-2.81-.35-3.99-.68Z"/>
  </g>
  <path class="cls-5" d="m180.58,129.8c-2.23-10.01-8.86-18.47-17.11-21.83-8.24-3.36-17.86-1.51-24.79,4.76-6.43,5.82-10.32,14.87-12.44,24.14-2.3,10.08-2.48,21.8,3.01,29.96,6.47,9.62,18.54,10.96,28.66,8.25,8.95-2.4,17.75-7.71,22.86-16.76,5.1-9.05,5.51-22.28-.18-28.53Z"/>
  <path class="cls-5" d="m227.16,102.21c-9.67-.63-19.13,4.62-25.1,12.25s-8.79,17.33-9.65,26.98c-.61,6.86-.19,14.13,3.34,20.04,3.86,6.46,10.89,10.38,17.98,12.88,9.37,3.31,19.67,4.65,29.31,2.23,13.13-3.3,24.18-13.87,28.05-26.85s.42-27.87-8.76-37.83c-9.18-9.95-23.75-14.6-35.18-9.7Z"/>
  <path class="cls-17" d="m177.79,128.61c-5.14-6.27-7.59-8.9-15.09-11.29-7.5-2.39-16.09-.13-22.08,4.95s-9.51,12.69-10.52,20.46c-1.07,8.24.98,17.51,7.62,22.57,4.25,3.24,9.86,4.35,15.21,4,9.54-.62,18.68-5.78,24.11-13.6,2.56-3.68,4.33-8.03,4.29-12.51s-1.28-11.83-3.54-14.58Z"/>
  <path class="cls-16" d="m232.87,111.67c-9.34-.08-18.66,3.67-25.33,10.21s-10.63,15.77-10.75,25.11c-.1,7.55,2.51,15.46,8.38,20.2,5.02,4.05,11.67,5.31,18.07,6.15,10.81,1.41,22.53,1.78,31.79-3.97,12.33-7.65,16.4-25.4,10-38.43-6.4-13.02-21.59-20.59-32.16-19.26Z"/>
  <path class="cls-18" d="m119.85,161.27c-1.29,4.46.85,9.38,4.31,12.48,3.46,3.1,8.01,4.67,12.52,5.74,7.68,1.82,15.66,2.4,23.53,1.72,4.25-.37,8.62-1.09,12.7.15,5.7,1.74,5.81,11.04,11.5,9.27,4.94-1.54,7.42-6.09,12.6-5.91s9.91,2.73,14.82,4.38c10.74,3.6,22.74,2.77,33.24-1.46s19.55-11.71,26.41-20.72"/>
  <path class="cls-15" d="m143.04,130.33c-.75,1.61-.85,3.56-.05,5.14s2.53,2.71,4.3,2.58c1.61-.12,2.98-1.17,4.11-2.33,1.52-1.56,2.76-3.38,3.66-5.36.67-1.46,1.14-3.17.5-4.65-.72-1.66-2.67-2.49-4.47-2.47-3.16.04-7.3,5.47-8.05,7.08Z"/>
  <path class="cls-15" d="m222.68,122.5c-2.07,1.14-4.12,2.55-5.27,4.62s-1.15,4.94.57,6.57c1.65,1.57,4.42,1.51,6.36.3,1.94-1.2,3.16-3.3,3.93-5.45.63-1.78.89-4.02-.47-5.32-.74-.71-1.83-.96-2.86-.9s-2.02.4-2.25.17Z"/>
  <path class="cls-5" d="m115,169.36s13.82,13.1,15.94,14.18c14.08,7.14,17.99,1.6,26.25.56,12.08-1.52,15.83,5.04,20.44,11.93,1.72,2.57,3.36,5.97,6.03,6.15,3.88.26,5.52-6.14,8.59-9.16,3.9-3.83,9.47-1.66,14.29-.3,18.74,5.28,57.29,1.46,66.78-19.59,2.26,2.14-8.04,23.63-9.17,26.89-6.37,18.39-20.73,21.67-27.61,39.78-4.71,12.38-3.15,27.85-9.23,39.25-4.17,7.83-11.25,12.33-18.25,15.65-13.78,6.54-28.53,9.83-43.26,9.64-6.77-.09-13.8-1.01-19.58-5.45-11.01-8.47-14.13-26.8-14.18-43.06-.05-16.25,1.82-33.23-3.17-48.22-2.48-7.46-11.84-9.46-14.44-20.37-3.64-15.25.56-17.89.56-17.89Z"/>
  <path class="cls-14" d="m113.04,257.07c-8.92-.51-17.59-4.55-23.72-11.06-2.36-2.51-4.42-5.41-7.36-7.22s-7.2-2.13-9.53.42c-1.77,1.93-1.88,4.85-1.57,7.45,1.52,12.62,10.59,24.1,9.07,36.73-1.48,12.28-14.61,21.83-26.76,19.45-.98-6.37-3.71-12.46-7.79-17.45-2.09-2.55-5.71-4.95-8.43-3.08-2.36,1.62-1.93,5.5.1,7.52,2.03,2.02,5.01,2.66,7.82,3.22.95,3.92,1.91,7.83,2.86,11.75-4.67-1.82-9.93-3.64-14.54-1.68-4.61,1.96-6.37,9.68-1.79,11.73,3.75,1.68,8.27-3.25,6.42-6.91,4.02.41,8.05.82,12.07,1.23-3.7,1.66-7.55,3.43-10.12,6.57-2.57,3.14-3.44,8.09-.82,11.19,2.61,3.11,8.92,2.13,9.46-1.9.18-1.36-.27-2.71-.37-4.07-.34-4.72,3.72-8.82,8.22-10.28,4.5-1.46,9.36-.95,14.08-.68,5.79.33,11.81.22,17.07-2.22,5.26-2.44,9.56-7.76,9.15-13.55-.23-3.34-1.94-6.36-3.41-9.36-1.47-3-2.78-6.33-2.14-9.62s3.98-6.23,7.18-5.25c1.85.57,3.12,2.21,4.39,3.68,6,6.98,14.47,11.8,23.54,13.39,6.88,1.21,15.25-.14,18.57-6.29,2.37-4.38,1.3-10.05-1.67-14.05s-7.51-6.55-12.18-8.27c-6.52-2.39-13.55-3.37-17.79-1.38Z"/>
  <path class="cls-14" d="m239.49,264.81c8.94.93,18.2-1.61,25.3-6.95,2.74-2.06,5.24-4.56,8.44-5.84s7.49-.92,9.4,1.93c1.45,2.16,1.11,5.01.39,7.49-3.49,12.03-14.3,21.74-14.76,34.26-.45,12.18,11.1,23.57,23.54,23.19,1.97-6.04,5.63-11.53,10.48-15.72,2.48-2.14,6.45-3.9,8.86-1.65,2.09,1.96,1.05,5.66-1.28,7.29-2.33,1.63-5.4,1.78-8.27,1.88-1.56,3.66-3.12,7.31-4.68,10.97,4.93-1.02,10.44-1.95,14.71.7,4.28,2.64,4.81,10.44-.05,11.7-3.98,1.03-7.71-4.49-5.29-7.75-4.06-.25-8.13-.49-12.19-.74,3.42,2.21,6.96,4.54,9.03,8.01,2.07,3.47,2.15,8.41-.94,11.02s-9.19.64-9.1-3.36c.03-1.35.7-2.59,1.01-3.9,1.08-4.53-2.32-9.17-6.56-11.31s-9.15-2.42-13.89-2.92c-5.8-.61-11.77-1.67-16.61-4.89-4.84-3.22-8.28-9.08-6.97-14.64.75-3.21,2.92-5.88,4.85-8.56,1.93-2.68,3.75-5.71,3.64-9.01-.11-3.3-2.98-6.7-6.31-6.25-1.93.26-3.45,1.65-4.93,2.87-7.06,5.83-16.23,9.15-25.48,9.25-7.03.07-15.13-2.58-17.47-9.09-1.66-4.64.28-9.98,3.86-13.39,3.57-3.42,8.49-5.17,13.4-6.09,6.85-1.28,13.99-1.1,17.89,1.51Z"/>
  <path class="cls-12" d="m213.5,151.65c7.82,3.84,17.24,2.64,24.2-3.08,6.96-5.73,11.23-15.79,10.97-25.86.67,8.13.1,16.61-2.94,23.94-3.03,7.33-8.82,13.33-15.63,14.45-6.8,1.11-14.31-3.54-16.61-9.45Z"/>
  <path class="cls-10" d="m142.17,153.17c4.48,5.09,12.71,6.37,18.52,2.88s8.54-11.36,6.15-17.7c1.96,5.82,1.85,12.53-1.25,17.83-3.1,5.3-9.48,8.8-15.51,7.61s-10.79-7.63-7.9-10.61Z"/>
  <path class="cls-1" d="m101.29,164.02c-5.57,9.98-6.69,24.04-4.04,34.57s8.04,20.13,12.74,29.91,8.83,20.24,8.64,31.1c4.8-6.79,4.04-16.16.98-23.9s-7.62-14.76-11.62-22.05c-14.73-26.84-4.21-55.02,3.84-60.57.81-.56-9.64,9.3-10.55,10.93Z"/>
  <path class="cls-14" d="m105.74,177.28c-8.13-18.43-18.85-35.8-31.76-51.47,11.8-4.84,22.1-12.99,29.27-23.12-3.63-4.14-5.55-9.67-5.23-15.06.1-1.57.56-3.37,2.03-3.98,2.39-.99,4.67,2.21,4.34,4.74-.32,2.53-1.14,2.62-1.43,5.16-.29,2.53,1.27,7.79,3.61,6.71,5.14-6.89,16.79-23.75,19.98-15.36,2.3,6.04-9.76,8.85-14.64,13.28-1.4,1.27-1.24,1.91.11,3.29,1.05,1.07,6.7.52,8.06-.07,5.37-2.31,6.01-8.66,10.65-5.38,1.86,1.31,1.59,5.59-.17,7.21-7.69,7.07-14.93-2.6-23.32,2.38-8.39,4.98-16.88,18.02-27.36,22.94,10.43,6.23,18.25,18.59,23.52,30.38,1.38,3.1,4.17,5.45,4.67,8.71.51,3.26-1.23,7.06-2.34,9.66Z"/>
  <path class="cls-14" d="m286.51,174.25c13.34,15.04,28.74,28.3,45.62,39.27-9.38,8.2-16.33,19.09-19.76,30.91,4.67,2.83,8.19,7.51,9.59,12.73.41,1.52.55,3.38-.62,4.41-1.9,1.67-5.01-.68-5.51-3.18-.5-2.5.22-2.84-.31-5.34-.53-2.5-3.63-7.02-5.45-5.28-2.58,8.12-8.02,27.7-13.62,20.7-4.03-5.05,6.23-11.39,9.34-17.09.89-1.63.54-2.2-1.14-3.1-1.3-.7-6.35,1.55-7.43,2.52-4.24,3.84-2.82,10.06-8.14,8.36-2.13-.68-3.23-4.83-2.12-6.91,4.88-9.06,14.62-2.08,20.81-9.37,6.18-7.29,9.92-22.28,18.05-30.15-11.61-2.75-22.75-12.12-31.34-21.73-2.26-2.53-5.57-3.91-7.07-6.85-1.5-2.94-1.09-7.09-.89-9.89Z"/>
  <path class="cls-6" d="m195.97,41.8c-4.56,1.81-6.71,4.27-9.47,8.33.05-2.78,4.8-8.72,6.4-11-3.96,1.2-11.31,6.97-13.62,10.4.9-4.57,7.67-9.75,11.31-12.64-3.37-.85-11.24.56-14.31,2.2,4.15-3.6,8.92-6.49,14.04-8.5-3.48-1.23-6.95-2.46-10.43-3.7,3.8.14,7.6.28,11.41.42-1.35-3.68-2.71-7.35-4.06-11.03,3.71,1.96,6.69,5.26,8.26,9.15-.7-4.75.55-9.77,3.4-13.64.32,4.74.63,9.49.95,14.23,2.1-3.71,5.84-6.45,10.02-7.33-2.56,4.11-5.12,8.22-7.68,12.33,5.2-2.85,12.02-2.44,16.84,1.01-4.57.43-9.07,1.66-13.22,3.61,5.15-.72,10.48,3.44,11.02,8.61-4.35-2.98-9.34-5.03-14.54-5.96,3.57,4.13,4.6,10.02,6.12,13.6-1.42-3.79-6.1-8.26-9.1-12.13,1.14,4.38-.51,10.07-1.24,14.3-1.71-3.82-1.2-9.08-2.08-12.27Z"/>
  <path class="cls-1" d="m166.93,114.22c-6.46-4.17-15.05-4.83-22.08-1.7-7.03,3.13-12.27,9.96-14.59,17.21,4.61-5.84,9.63-11.66,16.27-15.04,6.64-3.37,15.3-3.77,20.39-.47Z"/>
  <path class="cls-1" d="m196.2,131.1c6.99-9.6,16.3-18.03,27.68-21.43s24.99-.87,32.65,8.21c-.82-6.41-6.34-11.5-12.51-13.41-6.17-1.91-12.86-1.13-19.13.43-7.49,1.86-14.87,4.91-20.53,10.15-5.67,5.24-9.41,12.93-8.14,16.05Z"/>
  <path class="cls-1" d="m120.38,176.75c-3.69,2.12-3.05,7.94-.27,11.15,2.79,3.22,6.91,4.94,10.08,7.78,7.28,6.54,8.18,17.54,7.55,27.3-.63,9.76-2.2,20.04,1.8,28.97,2.21,4.94,6.01,9.12,7.63,14.27,1.63,5.18.9,10.76.48,16.18s-.42,11.21,2.42,15.84c2.84,4.63,9.48,7.31,13.92,4.18-5.39-7.78-10.98-16.1-11.49-25.55-.34-6.4,1.68-13-.24-19.11-1.55-4.94-5.47-8.8-7.35-13.62-2.91-7.45-.54-15.78,1.26-23.58s2.74-16.81-2.27-23.05c-3.98-4.95-10.59-6.71-16.23-9.64s-11.07-8.81-7.31-11.13Z"/>
  <path class="cls-1" d="m99.25,162.34c-4.09-16.55-13.52-24.88-25.56-35.88,12.5-3.03,20.22-11.19,29.58-20.01-6.15,6.19-12.31,12.38-18.46,18.57-.79.8-4.86,1.65-5.14,2.73-.31,1.26-.45,1.63.4,2.61,10.2,11.86,14.59,17.43,20.22,29.37.65,1.37,4.22,8.52,2.71,8.57-.55.02-3.59-5.31-3.75-5.97Z"/>
  <path class="cls-1" d="m115.02,263.37c-9.78-1.14-19.23-5.1-26.95-11.29-1.84-1.47-3.64-3.11-5.87-3.86-2.23-.75-5.04-.36-6.35,1.62-1.51,2.29-.38,5.33.7,7.86,2.44,5.77,4.39,11.75,5.81,17.86,1.58,6.82,2.37,14.51-1.43,20.36-4.25,6.53-12.65,8.54-20.23,10.02-3.97.77-9.02,1.1-11.09-2.42-2.14-3.63.54-9.18-2.47-12.12-2.3-2.25-7.33-2.33-7.18-5.56.1-2.18,3.21-3.1,4.98-1.85s2.32,3.65,2.34,5.83c.02,2.18-.36,4.4.14,6.52.9,3.84,4.58,6.55,8.43,7.2,3.84.65,7.79-.42,11.36-1.99,8.48-3.72,16.25-11.61,15.77-20.95-.27-5.18-2.99-9.86-5.65-14.3-2.65-4.44-5.38-9.12-5.63-14.3-.25-5.18,2.89-10.93,7.97-11.66,3.68-.53,7.26,1.66,9.82,4.38,2.57,2.72,4.47,6.03,7.07,8.73,4.46,4.64,10.92,7.23,18.47,9.91Z"/>
  <path class="cls-8" d="m166.62,203.09c2.59.74,3.71,4.46,1.97,6.51s-5.59,1.55-6.74-.89c-1.15-2.43,1.05-6.69,4.77-5.62Z"/>
  <circle class="cls-8" cx="209.73" cy="209.04" r="3.77"/>
  <ellipse class="cls-8" cx="172.86" cy="232.86" rx="3.43" ry="4"/>
  <ellipse class="cls-8" cx="181.75" cy="216.33" rx="3" ry="3.26"/>
  <circle class="cls-9" cx="199.65" cy="230.86" r="2"/>
  <circle class="cls-9" cx="154.8" cy="219.58" r="2.51"/>
  <circle class="cls-9" cx="191.79" cy="208.08" r="1.74"/>
  <circle class="cls-9" cx="220.73" cy="221.54" r="1.96"/>
  <circle class="cls-9" cx="154.55" cy="235.12" r="2.26"/>
  <circle class="cls-9" cx="199.65" cy="198.8" r="2"/>
  <circle class="cls-9" cx="153.93" cy="194.88" r="1.64"/>
  <path class="cls-13" d="m188.52,173.19c2.81-3.49,4.57-7.78,5.02-12.21.64,4.06,1.29,8.12,1.93,12.19-2.48.14-4.96.27-6.96.03Z"/>
  <path class="cls-13" d="m185.83,172.65c-1.82-3.82-2.96-8.51-3.25-13.35-.42,4.44-.83,8.88-1.25,13.32,1.6.15,3.21.3,4.5.03Z"/>
  <path class="cls-11" d="m237.37,293.93c-22.22,12.43-46.95,19.88-72.05,21.69-7.94.57-16.03.58-23.71-1.63-7.68-2.21-14.96-6.85-19.21-13.94-7.3-12.18-4.18-27.96-5.98-42.23-2.17-17.21-11.58-32.3-17.71-48.41-6.13-16.12-8.41-36.21,2.27-49.44,5.81-7.2,14.63-11.11,23.5-12.53,8.87-1.42,17.91-.61,26.85.21,39.96,3.67,79.93,7.34,119.89,11.01,6.38.59,13.33,1.44,17.87,6.2,4.89,5.13,5.42,13.52,3.23,20.41-2.19,6.89-6.61,12.7-10.76,18.51-19.66,27.52-34.88,58.55-44.18,90.15Z"/>
  <path class="cls-4" d="m197.12,119.04c-22.91-2.57-46.56,1.84-67.01,12.5-10.24,5.34-20.67,14-20.76,25.54-.05,6.53,3.39,12.7,8,17.32,4.61,4.62,10.35,7.94,16.01,11.2,15.6,8.98,31.89,18.18,49.85,19.5,13.35.98,26.58-2.49,39.51-5.94,16.75-4.46,34.06-9.2,47.51-20.14,7.77-6.32,14.31-15.88,12.51-25.74-1.29-7.04-6.67-12.78-12.93-16.25s-13.36-5.02-20.35-6.53c-18.13-3.91-35.95-9.64-52.34-11.48Z"/>
  <g>
    <g>
      <path class="cls-7" d="m160.54,119.27c12.37-28.73,24.75-57.47,37.12-86.2,7.3,30.51,14.6,61.01,21.91,91.52-20.1-4.63-40.88-6.32-59.03-5.32Z"/>
      <path class="cls-2" d="m174.47,119.02c9.38-14.71,21.43-26.64,35.23-35.65,0,0-1.36-7.06-1.6-6.7-4.28,2.6-5.65,3.91-9.61,7.42-3.22,2.86-7,6.08-10.75,9.75-5.12,5.02-6.62,7.37-12.13,13.76-2.56,2.96-5.89,7.51-7.02,11.4l5.89.02Z"/>
      <path class="cls-3" d="m194.72,120.41c4.5-8.49,10.49-15.81,18.54-22.17,0,0-.94-5.36-1.38-5.75-10.07,7.96-17.6,16.59-22.82,27.35l5.66.57Z"/>
    </g>
    <path class="cls-2" d="m164.47,110.5c12.87-19.69,12.21-16.94,19.37-24.81,4.03-4.43,6.67-6.35,10.15-9.81s7.51-6.46,12.12-7.95c-.63-2.57-1.22-4.72-1.92-7.6-10.48,6.95-23.08,20.64-23.08,20.64,0,0-5.2,5.62-9.32,11.93-.95,3.21-8.26,17.07-7.32,17.59Z"/>
    <path class="cls-2" d="m182.44,68.83c4.79-7.4,11.63-13.46,19.56-17.32-.41-1.81-.82-3.62-1.23-5.43-9.12,4.11-15.19,11.94-18.33,22.75Z"/>
    <path class="cls-3" d="m205.4,121.82c3.07-4.2,6.59-8.01,10.88-10.96.3,1.66.81,3.2,1.29,5.39-3.25,1.52-8.18,6.26-8.18,6.26,0,0-2.81-.35-3.99-.68Z"/>
  </g>
  <path class="cls-5" d="m180.58,129.8c-2.23-10.01-8.86-18.47-17.11-21.83-8.24-3.36-17.86-1.51-24.79,4.76-6.43,5.82-10.32,14.87-12.44,24.14-2.3,10.08-2.48,21.8,3.01,29.96,6.47,9.62,18.54,10.96,28.66,8.25,8.95-2.4,17.75-7.71,22.86-16.76,5.1-9.05,5.51-22.28-.18-28.53Z"/>
  <path class="cls-5" d="m227.16,102.21c-9.67-.63-19.13,4.62-25.1,12.25s-8.79,17.33-9.65,26.98c-.61,6.86-.19,14.13,3.34,20.04,3.86,6.46,10.89,10.38,17.98,12.88,9.37,3.31,19.67,4.65,29.31,2.23,13.13-3.3,24.18-13.87,28.05-26.85s.42-27.87-8.76-37.83c-9.18-9.95-23.75-14.6-35.18-9.7Z"/>
  <path class="cls-17" d="m177.79,128.61c-5.14-6.27-7.59-8.9-15.09-11.29-7.5-2.39-16.09-.13-22.08,4.95s-9.51,12.69-10.52,20.46c-1.07,8.24.98,17.51,7.62,22.57,4.25,3.24,9.86,4.35,15.21,4,9.54-.62,18.68-5.78,24.11-13.6,2.56-3.68,4.33-8.03,4.29-12.51s-1.28-11.83-3.54-14.58Z"/>
  <path class="cls-16" d="m232.87,111.67c-9.34-.08-18.66,3.67-25.33,10.21s-10.63,15.77-10.75,25.11c-.1,7.55,2.51,15.46,8.38,20.2,5.02,4.05,11.67,5.31,18.07,6.15,10.81,1.41,22.53,1.78,31.79-3.97,12.33-7.65,16.4-25.4,10-38.43-6.4-13.02-21.59-20.59-32.16-19.26Z"/>
  <path class="cls-18" d="m119.85,161.27c-1.29,4.46.85,9.38,4.31,12.48,3.46,3.1,8.01,4.67,12.52,5.74,7.68,1.82,15.66,2.4,23.53,1.72,4.25-.37,8.62-1.09,12.7.15,5.7,1.74,5.81,11.04,11.5,9.27,4.94-1.54,7.42-6.09,12.6-5.91s9.91,2.73,14.82,4.38c10.74,3.6,22.74,2.77,33.24-1.46s19.55-11.71,26.41-20.72"/>
  <path class="cls-15" d="m143.04,130.33c-.75,1.61-.85,3.56-.05,5.14s2.53,2.71,4.3,2.58c1.61-.12,2.98-1.17,4.11-2.33,1.52-1.56,2.76-3.38,3.66-5.36.67-1.46,1.14-3.17.5-4.65-.72-1.66-2.67-2.49-4.47-2.47-3.16.04-7.3,5.47-8.05,7.08Z"/>
  <path class="cls-15" d="m222.68,122.5c-2.07,1.14-4.12,2.55-5.27,4.62s-1.15,4.94.57,6.57c1.65,1.57,4.42,1.51,6.36.3,1.94-1.2,3.16-3.3,3.93-5.45.63-1.78.89-4.02-.47-5.32-.74-.71-1.83-.96-2.86-.9s-2.02.4-2.25.17Z"/>
  <path class="cls-5" d="m115,169.36s13.82,13.1,15.94,14.18c14.08,7.14,17.99,1.6,26.25.56,12.08-1.52,15.83,5.04,20.44,11.93,1.72,2.57,3.36,5.97,6.03,6.15,3.88.26,5.52-6.14,8.59-9.16,3.9-3.83,9.47-1.66,14.29-.3,18.74,5.28,57.29,1.46,66.78-19.59,2.26,2.14-8.04,23.63-9.17,26.89-6.37,18.39-20.73,21.67-27.61,39.78-4.71,12.38-3.15,27.85-9.23,39.25-4.17,7.83-11.25,12.33-18.25,15.65-13.78,6.54-28.53,9.83-43.26,9.64-6.77-.09-13.8-1.01-19.58-5.45-11.01-8.47-14.13-26.8-14.18-43.06-.05-16.25,1.82-33.23-3.17-48.22-2.48-7.46-11.84-9.46-14.44-20.37-3.64-15.25.56-17.89.56-17.89Z"/>
  <path class="cls-14" d="m113.04,257.07c-8.92-.51-17.59-4.55-23.72-11.06-2.36-2.51-4.42-5.41-7.36-7.22s-7.2-2.13-9.53.42c-1.77,1.93-1.88,4.85-1.57,7.45,1.52,12.62,10.59,24.1,9.07,36.73-1.48,12.28-14.61,21.83-26.76,19.45-.98-6.37-3.71-12.46-7.79-17.45-2.09-2.55-5.71-4.95-8.43-3.08-2.36,1.62-1.93,5.5.1,7.52,2.03,2.02,5.01,2.66,7.82,3.22.95,3.92,1.91,7.83,2.86,11.75-4.67-1.82-9.93-3.64-14.54-1.68-4.61,1.96-6.37,9.68-1.79,11.73,3.75,1.68,8.27-3.25,6.42-6.91,4.02.41,8.05.82,12.07,1.23-3.7,1.66-7.55,3.43-10.12,6.57-2.57,3.14-3.44,8.09-.82,11.19,2.61,3.11,8.92,2.13,9.46-1.9.18-1.36-.27-2.71-.37-4.07-.34-4.72,3.72-8.82,8.22-10.28,4.5-1.46,9.36-.95,14.08-.68,5.79.33,11.81.22,17.07-2.22,5.26-2.44,9.56-7.76,9.15-13.55-.23-3.34-1.94-6.36-3.41-9.36-1.47-3-2.78-6.33-2.14-9.62s3.98-6.23,7.18-5.25c1.85.57,3.12,2.21,4.39,3.68,6,6.98,14.47,11.8,23.54,13.39,6.88,1.21,15.25-.14,18.57-6.29,2.37-4.38,1.3-10.05-1.67-14.05s-7.51-6.55-12.18-8.27c-6.52-2.39-13.55-3.37-17.79-1.38Z"/>
  <path class="cls-14" d="m239.49,264.81c8.94.93,18.2-1.61,25.3-6.95,2.74-2.06,5.24-4.56,8.44-5.84s7.49-.92,9.4,1.93c1.45,2.16,1.11,5.01.39,7.49-3.49,12.03-14.3,21.74-14.76,34.26-.45,12.18,11.1,23.57,23.54,23.19,1.97-6.04,5.63-11.53,10.48-15.72,2.48-2.14,6.45-3.9,8.86-1.65,2.09,1.96,1.05,5.66-1.28,7.29-2.33,1.63-5.4,1.78-8.27,1.88-1.56,3.66-3.12,7.31-4.68,10.97,4.93-1.02,10.44-1.95,14.71.7,4.28,2.64,4.81,10.44-.05,11.7-3.98,1.03-7.71-4.49-5.29-7.75-4.06-.25-8.13-.49-12.19-.74,3.42,2.21,6.96,4.54,9.03,8.01,2.07,3.47,2.15,8.41-.94,11.02s-9.19.64-9.1-3.36c.03-1.35.7-2.59,1.01-3.9,1.08-4.53-2.32-9.17-6.56-11.31s-9.15-2.42-13.89-2.92c-5.8-.61-11.77-1.67-16.61-4.89-4.84-3.22-8.28-9.08-6.97-14.64.75-3.21,2.92-5.88,4.85-8.56,1.93-2.68,3.75-5.71,3.64-9.01-.11-3.3-2.98-6.7-6.31-6.25-1.93.26-3.45,1.65-4.93,2.87-7.06,5.83-16.23,9.15-25.48,9.25-7.03.07-15.13-2.58-17.47-9.09-1.66-4.64.28-9.98,3.86-13.39,3.57-3.42,8.49-5.17,13.4-6.09,6.85-1.28,13.99-1.1,17.89,1.51Z"/>
  <path class="cls-12" d="m213.5,151.65c7.82,3.84,17.24,2.64,24.2-3.08,6.96-5.73,11.23-15.79,10.97-25.86.67,8.13.1,16.61-2.94,23.94-3.03,7.33-8.82,13.33-15.63,14.45-6.8,1.11-14.31-3.54-16.61-9.45Z"/>
  <path class="cls-10" d="m142.17,153.17c4.48,5.09,12.71,6.37,18.52,2.88s8.54-11.36,6.15-17.7c1.96,5.82,1.85,12.53-1.25,17.83-3.1,5.3-9.48,8.8-15.51,7.61s-10.79-7.63-7.9-10.61Z"/>
  <path class="cls-1" d="m101.29,164.02c-5.57,9.98-6.69,24.04-4.04,34.57s8.04,20.13,12.74,29.91,8.83,20.24,8.64,31.1c4.8-6.79,4.04-16.16.98-23.9s-7.62-14.76-11.62-22.05c-14.73-26.84-4.21-55.02,3.84-60.57.81-.56-9.64,9.3-10.55,10.93Z"/>
  <path class="cls-14" d="m105.74,177.28c-8.13-18.43-18.85-35.8-31.76-51.47,11.8-4.84,22.1-12.99,29.27-23.12-3.63-4.14-5.55-9.67-5.23-15.06.1-1.57.56-3.37,2.03-3.98,2.39-.99,4.67,2.21,4.34,4.74-.32,2.53-1.14,2.62-1.43,5.16-.29,2.53,1.27,7.79,3.61,6.71,5.14-6.89,16.79-23.75,19.98-15.36,2.3,6.04-9.76,8.85-14.64,13.28-1.4,1.27-1.24,1.91.11,3.29,1.05,1.07,6.7.52,8.06-.07,5.37-2.31,6.01-8.66,10.65-5.38,1.86,1.31,1.59,5.59-.17,7.21-7.69,7.07-14.93-2.6-23.32,2.38-8.39,4.98-16.88,18.02-27.36,22.94,10.43,6.23,18.25,18.59,23.52,30.38,1.38,3.1,4.17,5.45,4.67,8.71.51,3.26-1.23,7.06-2.34,9.66Z"/>
  <path class="cls-14" d="m286.51,174.25c13.34,15.04,28.74,28.3,45.62,39.27-9.38,8.2-16.33,19.09-19.76,30.91,4.67,2.83,8.19,7.51,9.59,12.73.41,1.52.55,3.38-.62,4.41-1.9,1.67-5.01-.68-5.51-3.18-.5-2.5.22-2.84-.31-5.34-.53-2.5-3.63-7.02-5.45-5.28-2.58,8.12-8.02,27.7-13.62,20.7-4.03-5.05,6.23-11.39,9.34-17.09.89-1.63.54-2.2-1.14-3.1-1.3-.7-6.35,1.55-7.43,2.52-4.24,3.84-2.82,10.06-8.14,8.36-2.13-.68-3.23-4.83-2.12-6.91,4.88-9.06,14.62-2.08,20.81-9.37,6.18-7.29,9.92-22.28,18.05-30.15-11.61-2.75-22.75-12.12-31.34-21.73-2.26-2.53-5.57-3.91-7.07-6.85-1.5-2.94-1.09-7.09-.89-9.89Z"/>
  <path class="cls-6" d="m195.97,41.8c-4.56,1.81-6.71,4.27-9.47,8.33.05-2.78,4.8-8.72,6.4-11-3.96,1.2-11.31,6.97-13.62,10.4.9-4.57,7.67-9.75,11.31-12.64-3.37-.85-11.24.56-14.31,2.2,4.15-3.6,8.92-6.49,14.04-8.5-3.48-1.23-6.95-2.46-10.43-3.7,3.8.14,7.6.28,11.41.42-1.35-3.68-2.71-7.35-4.06-11.03,3.71,1.96,6.69,5.26,8.26,9.15-.7-4.75.55-9.77,3.4-13.64.32,4.74.63,9.49.95,14.23,2.1-3.71,5.84-6.45,10.02-7.33-2.56,4.11-5.12,8.22-7.68,12.33,5.2-2.85,12.02-2.44,16.84,1.01-4.57.43-9.07,1.66-13.22,3.61,5.15-.72,10.48,3.44,11.02,8.61-4.35-2.98-9.34-5.03-14.54-5.96,3.57,4.13,4.6,10.02,6.12,13.6-1.42-3.79-6.1-8.26-9.1-12.13,1.14,4.38-.51,10.07-1.24,14.3-1.71-3.82-1.2-9.08-2.08-12.27Z"/>
  <path class="cls-1" d="m166.93,114.22c-6.46-4.17-15.05-4.83-22.08-1.7-7.03,3.13-12.27,9.96-14.59,17.21,4.61-5.84,9.63-11.66,16.27-15.04,6.64-3.37,15.3-3.77,20.39-.47Z"/>
  <path class="cls-1" d="m196.2,131.1c6.99-9.6,16.3-18.03,27.68-21.43s24.99-.87,32.65,8.21c-.82-6.41-6.34-11.5-12.51-13.41-6.17-1.91-12.86-1.13-19.13.43-7.49,1.86-14.87,4.91-20.53,10.15-5.67,5.24-9.41,12.93-8.14,16.05Z"/>
  <path class="cls-1" d="m120.38,176.75c-3.69,2.12-3.05,7.94-.27,11.15,2.79,3.22,6.91,4.94,10.08,7.78,7.28,6.54,8.18,17.54,7.55,27.3-.63,9.76-2.2,20.04,1.8,28.97,2.21,4.94,6.01,9.12,7.63,14.27,1.63,5.18.9,10.76.48,16.18s-.42,11.21,2.42,15.84c2.84,4.63,9.48,7.31,13.92,4.18-5.39-7.78-10.98-16.1-11.49-25.55-.34-6.4,1.68-13-.24-19.11-1.55-4.94-5.47-8.8-7.35-13.62-2.91-7.45-.54-15.78,1.26-23.58s2.74-16.81-2.27-23.05c-3.98-4.95-10.59-6.71-16.23-9.64s-11.07-8.81-7.31-11.13Z"/>
  <path class="cls-1" d="m99.25,162.34c-4.09-16.55-13.52-24.88-25.56-35.88,12.5-3.03,20.22-11.19,29.58-20.01-6.15,6.19-12.31,12.38-18.46,18.57-.79.8-4.86,1.65-5.14,2.73-.31,1.26-.45,1.63.4,2.61,10.2,11.86,14.59,17.43,20.22,29.37.65,1.37,4.22,8.52,2.71,8.57-.55.02-3.59-5.31-3.75-5.97Z"/>
  <path class="cls-1" d="m115.02,263.37c-9.78-1.14-19.23-5.1-26.95-11.29-1.84-1.47-3.64-3.11-5.87-3.86-2.23-.75-5.04-.36-6.35,1.62-1.51,2.29-.38,5.33.7,7.86,2.44,5.77,4.39,11.75,5.81,17.86,1.58,6.82,2.37,14.51-1.43,20.36-4.25,6.53-12.65,8.54-20.23,10.02-3.97.77-9.02,1.1-11.09-2.42-2.14-3.63.54-9.18-2.47-12.12-2.3-2.25-7.33-2.33-7.18-5.56.1-2.18,3.21-3.1,4.98-1.85s2.32,3.65,2.34,5.83c.02,2.18-.36,4.4.14,6.52.9,3.84,4.58,6.55,8.43,7.2,3.84.65,7.79-.42,11.36-1.99,8.48-3.72,16.25-11.61,15.77-20.95-.27-5.18-2.99-9.86-5.65-14.3-2.65-4.44-5.38-9.12-5.63-14.3-.25-5.18,2.89-10.93,7.97-11.66,3.68-.53,7.26,1.66,9.82,4.38,2.57,2.72,4.47,6.03,7.07,8.73,4.46,4.64,10.92,7.23,18.47,9.91Z"/>
  <path class="cls-8" d="m166.62,203.09c2.59.74,3.71,4.46,1.97,6.51s-5.59,1.55-6.74-.89c-1.15-2.43,1.05-6.69,4.77-5.62Z"/>
  <circle class="cls-8" cx="209.73" cy="209.04" r="3.77"/>
  <ellipse class="cls-8" cx="172.86" cy="232.86" rx="3.43" ry="4"/>
  <ellipse class="cls-8" cx="181.75" cy="216.33" rx="3" ry="3.26"/>
  <circle class="cls-9" cx="199.65" cy="230.86" r="2"/>
  <circle class="cls-9" cx="154.8" cy="219.58" r="2.51"/>
  <circle class="cls-9" cx="191.79" cy="208.08" r="1.74"/>
  <circle class="cls-9" cx="220.73" cy="221.54" r="1.96"/>
  <circle class="cls-9" cx="154.55" cy="235.12" r="2.26"/>
  <circle class="cls-9" cx="199.65" cy="198.8" r="2"/>
  <circle class="cls-9" cx="153.93" cy="194.88" r="1.64"/>
  <path class="cls-13" d="m188.52,173.19c2.81-3.49,4.57-7.78,5.02-12.21.64,4.06,1.29,8.12,1.93,12.19-2.48.14-4.96.27-6.96.03Z"/>
  <path class="cls-13" d="m185.83,172.65c-1.82-3.82-2.96-8.51-3.25-13.35-.42,4.44-.83,8.88-1.25,13.32,1.6.15,3.21.3,4.5.03Z"/>
</svg>