<?xml version="1.0" encoding="UTF-8"?>
<svg id="Layer_1" data-name="Layer 1" xmlns="http://www.w3.org/2000/svg" viewBox="0 0 446.4 426.79">
  <defs>
    <style>
      .cls-1 {
        fill: #00aded;
      }

      .cls-2 {
        fill: #005dac;
      }

      .cls-3 {
        fill: #ef9050;
      }

      .cls-4 {
        fill: #ee78af;
      }

      .cls-5 {
        fill: #31b39f;
      }

      .cls-6 {
        fill: #8e4f9f;
      }

      .cls-7 {
        fill: #8cc759;
      }
    </style>
  </defs>
  <path class="cls-1" d="m202.56,257.46c-26.44,26.65-45.52,60.81-52.92,97.62-1.86,9.25-2.98,18.87-.93,28.09,2.05,9.21,7.75,18.02,16.4,21.8,9.68,4.23,21.37,1.39,29.83-4.94s14.16-15.65,18.75-25.16c9.16-19,14.64-39.75,16.08-60.79.83-12.15.22-24.76-4.92-35.8-5.15-11.04-15.62-20.21-22.28-20.81Z"/>
  <path class="cls-2" d="m179.91,181.68c-25.51-22.86-55.35-40.87-87.47-52.77-8.58-3.18-17.51-5.95-26.66-5.8-9.15.15-18.64,3.64-24.12,10.97-6.31,8.44-6.1,20.46-1.81,30.09,4.29,9.62,12.06,17.24,20.18,23.96,23.7,19.61,52.25,33.69,82.6,38.72,9.77,1.62,20.03,2.27,29.39-.99,9.35-3.26,17.62-11.18,18.78-21.02s-7.29-19.95-10.88-23.16Z"/>
  <path class="cls-6" d="m200.01,197.15c-26.46-28.68-45.18-64.42-53.7-102.5-4.03-18.03-5.68-37.49,1.59-54.47,7.27-16.98,25.71-30.26,43.78-26.4,19.33,4.12,30.22,24.68,35.42,43.75,9.43,34.56,8.87,71.2,3.69,106.64-1.42,9.76-3.57,20.19-10.78,26.92s-21.11,6.8-20,6.06Z"/>
  <path class="cls-4" d="m245.61,205.64c-2.44-47.87,11.91-96.43,39.97-135.29,6.64-9.2,14.21-18.03,23.99-23.79,9.77-5.76,22.11-8.07,32.62-3.8,11.59,4.71,19.08,16.73,21.01,29.09,1.93,12.36-.96,25.01-5.28,36.75-18.52,50.38-65.41,89.23-112.31,97.04Z"/>
  <path class="cls-7" d="m181.76,248.07c-28.75-5.93-59.08-11.78-86.96-2.59-23.18,7.64-42.65,25.84-51.82,48.46-3.54,8.73-5.21,19.76,1.12,26.73,5.97,6.57,16.18,6.48,25.02,5.63,21.39-2.04,42.95-5.63,62.46-14.65s36.93-24.04,45.17-43.89c2.02-4.85,3.48-10.11,2.83-15.33s-3.79-10.36,2.18-4.37Z"/>
  <path class="cls-5" d="m254.49,256.67c.91,21.16,3.57,42.52,11.34,62.23s21.03,37.79,39.43,48.28c10.28,5.86,23.25,9.13,33.84,3.86,8.62-4.3,13.96-13.67,15.22-23.22s-1.08-19.26-4.65-28.21c-16.57-41.57-62.26-69.51-95.18-62.93Z"/>
  <path class="cls-3" d="m267.98,231.25c39.76,27.93,95,32.04,138.46,10.3,8.95-4.48,17.61-10.16,23.34-18.36,5.73-8.2,8.02-19.35,3.77-28.4-6.06-12.91-22.23-17.09-36.44-18.27-36.6-3.04-73.99,4.03-106.95,20.22-7.06,3.47-14.1,7.5-18.97,13.68s-8.98,16.79-3.21,20.84Z"/>
</svg>