<svg xmlns="http://www.w3.org/2000/svg" width="312.51" height="301.114" viewBox="0 0 312.51 301.114">
  <g id="puggy" transform="translate(0.501 1.53)">
    <rect id="Rectangle_37" data-name="Rectangle 37" width="229.629" height="200.626" rx="65.46" transform="translate(32.799 81.971)" fill="#54514c" stroke="#c4c8cf" stroke-miterlimit="10" stroke-width="1"/>
    <path id="Path_82" data-name="Path 82" d="M192.838,462.132c-9.391-5.2-12.991-16.128-8.435-25.59,3.342-6.934,10.436-12.866,12.5-20.005,2.252-7.809-1.724-16.36,3.949-23.24,3.342-4.056,9.435-6.335,15.127-6.549a34.3,34.3,0,0,1,15.69,3.565c8.033,3.735,14.9,9.721,15.994,17.468.751,5.352-1.3,11.035-.652,16.413.474,3.976,2.4,7.6,3.208,11.508,2.475,11.991-7.255,26.037-21.783,31.442s-32.139,1.546-35.588-5.012Z" transform="translate(-31.197 -227.579)" fill="#928379" stroke="#685858" stroke-miterlimit="10" stroke-width="3" opacity="0.64"/>
    <path id="Path_83" data-name="Path 83" d="M303.394,332.767c0-13.769,3.931-41.869,0-55.057-10.231-34.328-16.333-40.547-49.661-49.661-21.73-5.942-68.638-6.808-90.109,0-34.82,11.044-46.444,20.059-49.661,49.661-1.483,13.688,0,41.3,0,55.057,0,27.421,24.589,60.776,49.661,49.661,35.24-15.636,57.13-17.548,90.109,0,24.214,12.884,49.661-22.23,49.661-49.661Z" transform="translate(-23.963 -210.169)" fill="#424644"/>
    <path id="Path_84" data-name="Path 84" d="M88.015,223.293a51.165,51.165,0,0,1,64.126,53.869c-.268,3.091-.885,6.308-2.832,8.721-2.582,3.19-7.112,4.333-11.169,3.663s-7.693-2.868-10.927-5.4c-8.587-6.71-15.029-15.851-23.633-22.543-4.879-3.8-10.382-6.755-14.993-10.874s-8.345-9.828-8.086-16,5.906-12.205,7.505-11.446Z" transform="translate(158.178 -209.997)" fill="#424644" stroke="#685858" stroke-miterlimit="10" stroke-width="3"/>
    <path id="Path_85" data-name="Path 85" d="M342.31,210.459a57.309,57.309,0,0,0-71.793,60.4c.3,3.467.992,7.077,3.172,9.784,2.895,3.583,7.97,4.852,12.5,4.11s8.613-3.217,12.232-6.049c9.614-7.523,16.833-17.772,26.456-25.277,5.459-4.253,11.624-7.577,16.78-12.187s9.346-11.017,9.051-17.932-6.612-13.688-8.4-12.831Z" transform="translate(-209.832 -208.608)" fill="#424644" stroke="#5d5354" stroke-miterlimit="10" stroke-width="3"/>
    <path id="Path_86" data-name="Path 86" d="M188.94,285.988c6.5-4.718,16.95-2.341,20.774,4.736,3.476,6.433,1.546,14.278.071,21.444-2,9.721-2.94,20.113.715,29.351s13.054,16.8,22.891,15.475c7.193-.965,13.858-6.362,20.961-4.861,7.845,1.653,11.651,11.812,8.64,19.237s-10.829,11.955-18.692,13.51c-14.242,2.806-28.949-2.466-41.351-10.007-5.879-3.583-12.178-7.863-19-6.9-6.406.911-11.16,6.192-16.833,9.3-6.165,3.386-13.885,4.137-20.318,1.3s-11.249-9.417-11.285-16.449,5.129-13.947,12.027-15.279c6.683-1.3,13.867,2.305,20.247-.054,5.593-2.073,8.747-8.274,9.167-14.224s-1.331-11.8-2.779-17.584-2.591-11.91-1-17.655c2.261-8.14,10.436-14.233,15.752-11.321Z" transform="translate(-2.691 -216.589)" fill="#cab9b1" opacity="0.25"/>
    <path id="Path_87" data-name="Path 87" d="M181.463,316.431c-7.452-23.794-8.81-28.672-31.362-31.7-15.368-2.064-25.375,15.073-25.375,31.7s12.706,30.1,28.369,30.1S186.717,333.2,181.463,316.431Z" transform="translate(88.578 -216.698)" fill="#fff"/>
    <path id="Path_88" data-name="Path 88" d="M301.307,314.731c0-16.628-13.76-35.767-28.369-30.1-16.637,6.451-28.369,13.474-28.369,30.1s12.706,30.1,28.369,30.1S301.307,331.359,301.307,314.731Z" transform="translate(-137.414 -216.597)" fill="#fff"/>
    <path id="Path_89" data-name="Path 89" d="M162.946,315.979a17.546,17.546,0,0,1-5.593,15.726,15.1,15.1,0,0,1-16.28,2.171c-5.173-2.645-8.274-9-6.8-14.618,2.663-.983,5.549-2.153,6.907-4.655s-.214-6.514-3.038-6.254c-2.484.232-3.806,3.342-6.228,3.922a4.412,4.412,0,0,1-4.441-2.046,10.5,10.5,0,0,1-1.456-4.932,23.5,23.5,0,0,1,1.716-12.3A13.8,13.8,0,0,1,137,285.171c4.19-.876,8.542.706,12.143,3.02,10.043,6.46,12.473,18.987,13.8,27.779Z" transform="translate(106.817 -216.737)" fill="#565d5f"/>
    <path id="Path_90" data-name="Path 90" d="M257.4,283.552c11.58,3.011,19.192,14.859,20.676,26.733a29.03,29.03,0,0,1-1.555,14.7c-1.912,4.6-5.611,8.6-10.347,10.141s-10.463.277-13.59-3.61-2.895-10.266.929-13.456c1.564-1.3,3.592-2.064,4.923-3.619s1.4-4.476-.509-5.191c-2.3-.849-4.11,2.2-6.46,2.886-3.056.893-5.647-2.4-6.773-5.379-2.189-5.8-2.582-12.67.706-17.915s10.99-7.827,11.991-5.3Z" transform="translate(-113.079 -216.485)" fill="#565d5f"/>
    <path id="Path_91" data-name="Path 91" d="M253.57,359.756c4.45,2.43,4.905,8.578,1.733,12.268s-8.846,5.084-14.037,4.682-10.061-2.341-14.814-4.244c-6.085-2.439-12.58-5.209-15.761-10.436-2.019-3.324-2.4-7.211-2.752-10.972-1.3-14.18-2.609-28.36-9.042-44.854.5,15.386.947,31.1-4.083,45.828a41.254,41.254,0,0,1-9.382,16.011,27.794,27.794,0,0,1-17.593,8.318c-6.791.429-13.965-2.395-17.361-7.648a11.931,11.931,0,0,1,3.36-16.342" transform="translate(-7.707 -219.002)" fill="none" stroke="#6e7579" stroke-miterlimit="10" stroke-width="3"/>
    <path id="Path_92" data-name="Path 92" d="M208.963,291.774l12.536.188c1.313.018,2.788.107,3.681,1.063,1.278,1.358.652,3.547-.045,5.272a30.433,30.433,0,0,1-4,7.693,10.258,10.258,0,0,1-7.336,4.164c-5.432.2-9.23-5.111-11.973-9.793-1.394-2.386-2.8-5.406-1.322-7.747a5.152,5.152,0,0,1,4.7-2.055A6.949,6.949,0,0,1,208.963,291.774Z" transform="translate(-22.089 -217.335)" fill="#a27e66" stroke="#876136" stroke-miterlimit="10" stroke-width="1"/>
    <path id="Path_93" data-name="Path 93" d="M96.4,245.59c1.876,4.423,3.779,9.051,3.413,13.84s-3.806,9.7-8.6,10.016c-2.243.143-4.539-.706-6.692-.071-3.4,1.01-4.744,5.432-3.663,8.81s3.824,5.906,6.46,8.283a26.635,26.635,0,0,0,6.737,4.878,9.016,9.016,0,0,0,8.05-.018,11.008,11.008,0,0,0,4-4.9,30.9,30.9,0,0,0,2.01-21.578c-1.966-7.112-6.6-13.456-11.732-19.264Z" transform="translate(201.285 -212.547)" fill="#a1a7ae" opacity="0.42"/>
    <path id="Path_94" data-name="Path 94" d="M357.549,278.816a8.3,8.3,0,0,0-5.406-8.953c-2.975-.974-6.192-.143-9.31.125s-6.782-.34-8.336-3.056c-1.269-2.216-.661-4.968-.313-7.505s.161-5.584-1.984-6.969c-2.529-1.626-5.933.259-7.711,2.689-3.7,5.057-3.672,11.919-2.582,18.093.84,4.789,2.5,9.891,6.558,12.572,5,3.315,11.732,1.76,17.209-.688,4.6-2.064,8.953-4.673,11.892-6.326Z" transform="translate(-262.285 -213.214)" fill="#a1a7ae" opacity="0.42"/>
    <path id="Path_95" data-name="Path 95" d="M406.332,343.634c-12.777,6.8-30.513,1.358-38.733-9.927s-7.9-26.555-2.019-39.01c3.494-7.407,9.194-14.367,17.3-17.459s18.79-1.206,23.374,5.683c3.4,5.12,2.886,11.669,1.233,17.477-1.269,4.441-3.208,8.863-6.692,12.152s-8.765,5.254-13.581,4.056-8.453-5.647-8.327-10.248,3.976-8.89,8.855-9.864a5.789,5.789,0,0,1-.366,8.113c4.333.25,8.586-2.886,9.266-6.826s-2.3-8.14-6.5-9.141c-4.048-.965-8.426.894-11.151,3.815s-4.048,6.719-4.887,10.49c-1.233,5.5-1.546,11.365.67,16.6s7.4,9.668,13.492,10.016c4.807.277,9.337-1.894,13.635-3.9s9.024-3.949,13.769-3.181,12.268,9.641-9.337,21.14Z" transform="translate(-361.283 -215.764)" fill="#424644" stroke="#3c3c3c" stroke-miterlimit="10" stroke-width="1"/>
    <path id="Path_96" data-name="Path 96" d="M112.479,443.634q21.484,15.614,41.834,32.738c3.127,2.636,6.594,6.353,5.4,10.114-.956,3-4.682,4.28-7.845,3.619s-5.852-2.752-8.426-4.78q-17.008-13.429-34.024-26.859c-2.484-1.966-5.039-4.012-6.558-6.773s-1.715-6.478.375-8.658,6.531-1.367,9.239.6Z" transform="translate(131.606 -233.437)" fill="#424644" stroke="#343b3c" stroke-miterlimit="10" stroke-width="1"/>
    <path id="Path_97" data-name="Path 97" d="M209.343,520.578c.143,3.181.268,6.5-1.028,9.4s-4.467,5.245-7.559,4.485c-4.262-1.045-5.334-6.514-5.513-10.892q-1.019-25.371.268-50.751c.134-2.609.313-5.316,1.519-7.63s3.753-4.155,6.326-3.708c2.269.393,3.958,2.457,4.619,4.664s.572,37.116,1.358,54.423Z" transform="translate(-1.061 -235.533)" fill="#424644" stroke="#444445" stroke-miterlimit="10" stroke-width="1"/>
    <path id="Path_98" data-name="Path 98" d="M305.674,502.69a177.282,177.282,0,0,1,10.132-48.347,17.118,17.118,0,0,1,3.538-6.5c1.751-1.76,4.539-2.743,6.791-1.689,3.771,1.751,3.476,7.139,2.573,11.2q-2.828,12.759-5.665,25.518c-1.358,6.12-2.2,13.769,2.85,17.495,2.94,2.171,6.889,2.118,10.525,2.457a42.269,42.269,0,0,1,17.888,5.906c2.823,1.716,5.531,3.851,7.068,6.773s1.671,6.773-.384,9.355c-2.672,3.369-7.872,3.431-11.892,1.912s-7.5-4.253-11.553-5.692c-4.8-1.707-10.034-1.465-15.127-1.644s-10.472-.911-14.43-4.119-5.674-9.632-2.314-12.625Z" transform="translate(-251.636 -233.862)" fill="#424644" stroke="#474547" stroke-miterlimit="10" stroke-width="1"/>
  </g>
</svg>
