<?xml version="1.0" encoding="UTF-8"?>
<svg id="Layer_1" data-name="Layer 1" xmlns="http://www.w3.org/2000/svg" viewBox="0 0 595.28 841.89">
  <defs>
    <style>
      .cls-1 {
        fill: none;
        stroke: #6e7579;
      }

      .cls-1, .cls-2, .cls-3, .cls-4, .cls-5, .cls-6, .cls-7, .cls-8, .cls-9, .cls-10 {
        stroke-miterlimit: 10;
      }

      .cls-1, .cls-2, .cls-9, .cls-10 {
        stroke-width: 3px;
      }

      .cls-11 {
        fill: #fff;
      }

      .cls-12, .cls-4, .cls-5, .cls-6, .cls-7, .cls-9, .cls-10 {
        fill: #424644;
      }

      .cls-13 {
        fill: #565d5f;
      }

      .cls-2 {
        fill: #928379;
        opacity: .64;
      }

      .cls-2, .cls-10 {
        stroke: #685858;
      }

      .cls-3 {
        fill: #a27e66;
        stroke: #876136;
      }

      .cls-4 {
        stroke: #343b3c;
      }

      .cls-5 {
        stroke: #474547;
      }

      .cls-6 {
        stroke: #3c3c3c;
      }

      .cls-7 {
        stroke: #444445;
      }

      .cls-8 {
        fill: #54514c;
        stroke: #c4c8cf;
      }

      .cls-9 {
        stroke: #5d5354;
      }

      .cls-14 {
        fill: #cab9b1;
        opacity: .25;
      }

      .cls-15 {
        fill: #a1a7ae;
        opacity: .42;
      }
    </style>
  </defs>
  <rect class="cls-8" x="134.29" y="300.35" width="257" height="224.54" rx="65.46" ry="65.46"/>
  <path class="cls-2" d="m247.09,471.12c10.51-5.82,14.54-18.05,9.44-28.64-3.74-7.76-11.68-14.4-13.99-22.39-2.52-8.74,1.93-18.31-4.42-26.01-3.74-4.54-10.56-7.09-16.93-7.33-6.37-.23-12.32,1.55-17.56,3.99-8.99,4.18-16.68,10.88-17.9,19.55-.84,5.99,1.46,12.35.73,18.37-.53,4.45-2.69,8.51-3.59,12.88-2.77,13.42,8.12,29.14,24.38,35.19,16.26,6.06,35.97,1.73,39.83-5.61Z"/>
  <path class="cls-12" d="m115.26,345.82c0-15.41-4.4-46.86,0-61.62,11.45-38.42,18.28-45.38,55.58-55.58,24.32-6.65,76.82-7.62,100.85,0,38.97,12.36,51.98,22.45,55.58,55.58,1.66,15.32,0,46.22,0,61.62,0,30.69-27.52,68.02-55.58,55.58-39.44-17.5-63.94-19.64-100.85,0-27.1,14.42-55.58-24.88-55.58-55.58Z"/>
  <path class="cls-10" d="m152.46,223.49c-17.68-4.7-37.54-.28-51.55,11.49s-21.8,30.57-20.22,48.8c.3,3.46.99,7.06,3.17,9.76,2.89,3.57,7.96,4.85,12.5,4.1s8.61-3.21,12.23-6.04c9.61-7.51,16.82-17.74,26.45-25.23,5.46-4.25,11.62-7.56,16.78-12.17s9.34-11,9.05-17.91c-.3-6.91-6.61-13.66-8.4-12.81Z"/>
  <path class="cls-9" d="m279.73,210.68c19.8-5.27,42.03-.31,57.72,12.89,15.69,13.2,24.41,34.27,22.63,54.71-.34,3.88-1.11,7.92-3.55,10.95-3.24,4.01-8.92,5.43-13.99,4.6-5.08-.83-9.64-3.6-13.69-6.77-10.76-8.42-18.84-19.89-29.61-28.29-6.11-4.76-13.01-8.48-18.78-13.64-5.77-5.17-10.46-12.33-10.13-20.07.34-7.74,7.4-15.32,9.4-14.36Z"/>
  <path class="cls-14" d="m219.55,286.28c-7.28-5.28-18.97-2.62-23.25,5.3-3.89,7.2-1.73,15.98-.08,24,2.24,10.88,3.29,22.51-.8,32.85s-14.61,18.8-25.62,17.32c-8.05-1.08-15.51-7.12-23.46-5.44-8.78,1.85-13.04,13.22-9.67,21.53,3.37,8.31,12.12,13.38,20.92,15.12,15.94,3.14,32.4-2.76,46.28-11.2,6.58-4.01,13.63-8.8,21.26-7.72,7.17,1.02,12.49,6.93,18.84,10.41,6.9,3.79,15.54,4.63,22.74,1.46s12.59-10.54,12.63-18.41c.05-7.87-5.74-15.61-13.46-17.1-7.48-1.45-15.52,2.58-22.66-.06-6.26-2.32-9.79-9.26-10.26-15.92-.47-6.66,1.49-13.21,3.11-19.68,1.62-6.47,2.9-13.33,1.12-19.76-2.53-9.11-11.68-15.93-17.63-12.67Z"/>
  <path class="cls-11" d="m125.77,320.23c8.34-26.63,9.86-32.09,35.1-35.48,17.2-2.31,28.4,16.87,28.4,35.48s-14.22,33.69-31.75,33.69-37.63-14.92-31.75-33.69Z"/>
  <path class="cls-11" d="m244.57,318.44c0-18.61,15.4-40.03,31.75-33.69,18.62,7.22,31.75,15.08,31.75,33.69s-14.22,33.69-31.75,33.69-31.75-15.08-31.75-33.69Z"/>
  <path class="cls-13" d="m126.08,319.68c-.97,6.43,1.32,13.36,6.26,17.6s12.43,5.39,18.22,2.43,9.26-10.07,7.61-16.36c-2.98-1.1-6.21-2.41-7.73-5.21s.24-7.29,3.4-7c2.78.26,4.26,3.74,6.97,4.39,1.89.45,3.88-.68,4.97-2.29s1.44-3.59,1.63-5.52c.46-4.67.08-9.52-1.92-13.77s-5.78-7.79-10.37-8.75c-4.69-.98-9.56.79-13.59,3.38-11.24,7.23-13.96,21.25-15.45,31.09Z"/>
  <path class="cls-13" d="m266.47,283.67c-12.96,3.37-21.48,16.63-23.14,29.92-.69,5.53-.4,11.3,1.74,16.45s6.28,9.63,11.58,11.35,11.71.31,15.21-4.04c3.5-4.34,3.24-11.49-1.04-15.06-1.75-1.46-4.02-2.31-5.51-4.05s-1.57-5.01.57-5.81c2.57-.95,4.6,2.46,7.23,3.23,3.42,1,6.32-2.69,7.58-6.02,2.45-6.49,2.89-14.18-.79-20.05s-12.3-8.76-13.42-5.93Z"/>
  <path class="cls-1" d="m152.83,366.14c-4.98,2.72-5.49,9.6-1.94,13.73,3.55,4.13,9.9,5.69,15.71,5.24s11.26-2.62,16.58-4.75c6.81-2.73,14.08-5.83,17.64-11.68,2.26-3.72,2.69-8.07,3.08-12.28,1.46-15.87,2.92-31.74,10.12-50.2-.56,17.22-1.06,34.81,4.57,51.29,2.22,6.5,5.45,12.83,10.5,17.92,5.05,5.08,12.09,8.83,19.69,9.31s15.63-2.68,19.43-8.56c3.8-5.89,2.41-14.31-3.76-18.29"/>
  <path class="cls-3" d="m218.85,291.92l-14.03.21c-1.47.02-3.12.12-4.12,1.19-1.43,1.52-.73,3.97.05,5.9,1.22,3.01,2.46,6.07,4.48,8.61s4.97,4.54,8.21,4.66c6.08.22,10.33-5.72,13.4-10.96,1.56-2.67,3.13-6.05,1.48-8.67-1.07-1.7-3.26-2.42-5.26-2.3s-3.89.94-4.21,1.36Z"/>
  <path class="cls-15" d="m94.83,245.59c-2.1,4.95-4.23,10.13-3.82,15.49s4.26,10.86,9.62,11.21c2.51.16,5.08-.79,7.49-.08,3.8,1.13,5.31,6.08,4.1,9.86s-4.28,6.61-7.23,9.27c-2.32,2.08-4.69,4.2-7.54,5.46s-6.31,1.55-9.01-.02c-2.07-1.21-3.43-3.33-4.48-5.48-3.63-7.42-4.45-16.18-2.25-24.15,2.2-7.96,7.39-15.06,13.13-21.56Z"/>
  <path class="cls-15" d="m321.38,282.03c-.71-4.19,2.02-8.69,6.05-10.02,3.33-1.09,6.93-.16,10.42.14s7.59-.38,9.33-3.42c1.42-2.48.74-5.56.35-8.4s-.18-6.25,2.22-7.8c2.83-1.82,6.64.29,8.63,3.01,4.14,5.66,4.11,13.34,2.89,20.25-.94,5.36-2.8,11.07-7.34,14.07-5.6,3.71-13.13,1.97-19.26-.77-5.15-2.31-10.02-5.23-13.31-7.08Z"/>
  <path class="cls-6" d="m377.58,351.72c14.3,7.61,34.15,1.52,43.35-11.11,9.2-12.62,8.84-29.72,2.26-43.66-3.91-8.29-10.29-16.08-19.36-19.54s-21.03-1.35-26.16,6.36c-3.81,5.73-3.23,13.06-1.38,19.56,1.42,4.97,3.59,9.92,7.49,13.6,3.9,3.68,9.81,5.88,15.2,4.54,5.4-1.33,9.46-6.32,9.32-11.47-.14-5.15-4.45-9.95-9.91-11.04-2.37,2.52-2.18,6.75.41,9.08-4.85.28-9.61-3.23-10.37-7.64-.77-4.41,2.57-9.11,7.27-10.23,4.53-1.08,9.43,1,12.48,4.27,3.05,3.27,4.53,7.52,5.47,11.74,1.38,6.16,1.73,12.72-.75,18.58-2.48,5.86-8.28,10.82-15.1,11.21-5.38.31-10.45-2.12-15.26-4.36-4.81-2.24-10.1-4.42-15.41-3.56-5.31.86-13.73,10.79,10.45,23.66Z"/>
  <path class="cls-4" d="m154.82,443.86c-16.03,11.65-31.65,23.88-46.82,36.64-3.5,2.95-7.38,7.11-6.04,11.32,1.07,3.36,5.24,4.79,8.78,4.05,3.53-.74,6.55-3.08,9.43-5.35,12.69-10.02,25.38-20.04,38.08-30.06,2.78-2.2,5.64-4.49,7.34-7.58s1.92-7.25-.42-9.69c-2.35-2.44-7.31-1.53-10.34.67Z"/>
  <path class="cls-7" d="m194.89,527.63c-.16,3.56-.3,7.27,1.15,10.52s5,5.87,8.46,5.02c4.77-1.17,5.97-7.29,6.17-12.19.76-18.93.66-37.88-.3-56.8-.15-2.92-.35-5.95-1.7-8.54s-4.2-4.65-7.08-4.15c-2.54.44-4.43,2.75-5.17,5.22s-.64,41.54-1.52,60.91Z"/>
  <path class="cls-5" d="m367.52,509.48c-1.23-18.45-5.06-36.72-11.34-54.11-.94-2.62-2-5.3-3.96-7.27s-5.08-3.07-7.6-1.89c-4.22,1.96-3.89,7.99-2.88,12.54,2.11,9.52,4.23,19.04,6.34,28.56,1.52,6.85,2.46,15.41-3.19,19.58-3.29,2.43-7.71,2.37-11.78,2.75-7.06.66-13.96,2.94-20.02,6.61-3.16,1.92-6.19,4.31-7.91,7.58s-1.87,7.58.43,10.47c2.99,3.77,8.81,3.84,13.31,2.14,4.5-1.7,8.39-4.76,12.93-6.37,5.37-1.91,11.23-1.64,16.93-1.84s11.72-1.02,16.15-4.61c4.43-3.59,6.35-10.78,2.59-14.13Z"/>
</svg>