<svg xmlns="http://www.w3.org/2000/svg" width="457.533" height="381.745" viewBox="0 0 457.533 381.745">
  <g id="Component_13_1" data-name="Component 13 – 1" transform="translate(10.054 10.021)">
    <path id="Path_13" data-name="Path 13" d="M1708.468,855.129l41.492,339.259,76.489-216.979,43.106-122.28s99.5-71.436,106.82,40.836c2.416,37.05-19.54,56.158-27.7,62.336-15.968,12.092-95.674,10.2-55.41-25.4" transform="translate(-1539.086 -832.73)" fill="none" stroke="#5e68bc" stroke-linecap="round" stroke-linejoin="round" stroke-width="20"/>
    <path id="Path_14" data-name="Path 14" d="M1558.626,906.076c-16.436-31.93-55.017,48.4-8.393,43.737S1716.054,853.9,1716.054,853.9l-98.216,266.084s-24.166,37.654-56.649,57.593c-33.358,20.476-75.641,21.907-108.865-57.593-65.273-156.189,139.408-102.182,69.935-76.929" transform="translate(-1439.289 -827.775)" fill="none" stroke="#5e68bc" stroke-linecap="round" stroke-linejoin="round" stroke-width="20"/>
  </g>
</svg>
