<?xml version="1.0" encoding="UTF-8"?>
<svg id="Layer_1" data-name="Layer 1" xmlns="http://www.w3.org/2000/svg" viewBox="0 0 446.4 426.79">
  <defs>
    <style>
      .cls-1 {
        fill: #d7d3ea;
      }
    </style>
  </defs>
  <circle class="cls-1" cx="320.95" cy="296.48" r="21.5"/>
  <circle class="cls-1" cx="367.81" cy="328.21" r="13.06"/>
  <path class="cls-1" d="m335.32,160.95s-.01,0-.02,0c-.11-7.28-1.47-14.34-3.93-21.09,2.53-4.77,3.95-10.1,3.95-15.74,0-17.47-13.62-32.09-31.88-35.87,0-.28.02-.56.02-.84,0-20.94-16.98-37.92-37.92-37.92-16.55,0-30.62,10.61-35.79,25.39-.71-.08-1.43-.15-2.15-.22,0-.28.02-.55.02-.83,0-18.88-15.3-34.18-34.18-34.18-15.11,0-27.92,9.81-32.43,23.4-4.75-3.29-10.51-5.22-16.73-5.22-11.73,0-21.85,6.85-26.59,16.77-2.01-.51-4.12-.78-6.28-.78-14.22,0-25.75,11.53-25.75,25.75,0,7.14,2.9,13.59,7.59,18.26-2.45-.69-4.98-1.06-7.59-1.06-19.21,0-34.78,19.69-34.78,43.98s15.46,43.84,34.57,43.98c-5.68,6.19-9.16,14.44-9.16,23.51,0,19.21,15.57,34.78,34.78,34.78.29,0,.58-.01.87-.02,6.19,8.06,15.91,13.25,26.85,13.25,3.53,0,6.93-.54,10.13-1.54,6.6,8.76,19.57,14.71,34.5,14.71,16.98,0,31.43-7.71,36.85-18.48,6.76,5.43,15.34,8.69,24.69,8.69,15.64,0,29.16-9.11,35.54-22.31,4.23,1.29,8.81,2,13.6,2,21.31,0,38.59-13.94,38.59-31.14,0-1.24-.1-2.46-.28-3.67.96.09,1.92.14,2.9.14,17.6,0,31.86-14.26,31.86-31.86s-14.26-31.86-31.86-31.86Z"/>
</svg>